<svg xmlns="http://www.w3.org/2000/svg" version="1.1" xmlns:xlink="http://www.w3.org/1999/xlink" xmlns:svgjs="http://svgjs.dev/svgjs" width="2550" height="1700" preserveAspectRatio="none" viewBox="0 0 2550 1700"><g mask="url(&quot;#SvgjsMask1553&quot;)" fill="none"><rect width="2550" height="1700" x="0" y="0" fill="rgba(237, 237, 233, 1)"></rect><g mask="url(&quot;#SvgjsMask1555&quot;)"><path d="M1339 1599L1313 1573M1313 1651L1313 1625L1313 1599L1287 1573M1339 1495L1313 1469L1313 1443L1313 1417L1313 1391M1287 1729L1287 1703L1313 1677L1313 1651L1339 1625L1339 1599L1339 1573L1339 1547L1339 1521L1339 1495L1339 1469L1339 1443L1339 1417" stroke="url(&quot;#SvgjsLinearGradient1554&quot;)" stroke-width="4.33"></path><path d="M1332.5 1417 a6.5 6.5 0 1 0 13 0 a6.5 6.5 0 1 0 -13 0zM1306.5 1573 a6.5 6.5 0 1 0 13 0 a6.5 6.5 0 1 0 -13 0zM1280.5 1573 a6.5 6.5 0 1 0 13 0 a6.5 6.5 0 1 0 -13 0zM1306.5 1391 a6.5 6.5 0 1 0 13 0 a6.5 6.5 0 1 0 -13 0z" fill="url(&quot;#SvgjsLinearGradient1554&quot;)"></path><path d="M1261 1235L1261 1209L1261 1183M1261 1677L1287 1651L1287 1625L1287 1599M1235 1079L1261 1053L1261 1027L1261 1001L1261 975M1261 1261L1287 1235M1235 1105L1261 1079L1287 1053L1287 1027L1287 1001L1287 975L1261 949L1261 923L1287 897M1261 1339L1287 1313L1287 1287L1287 1261L1313 1235L1313 1209L1313 1183M1261 1521L1287 1495L1287 1469L1287 1443L1287 1417L1287 1391L1287 1365L1287 1339L1313 1313L1313 1287L1313 1261L1339 1235M1261 1729L1261 1703L1261 1677L1261 1651L1261 1625L1261 1599L1261 1573L1261 1547L1261 1521L1261 1495L1261 1469L1261 1443L1261 1417L1261 1391L1261 1365L1261 1339L1261 1313L1261 1287L1261 1261L1261 1235L1287 1209L1287 1183L1287 1157L1261 1131L1235 1105L1235 1079L1235 1053L1235 1027" stroke="url(&quot;#SvgjsLinearGradient1554&quot;)" stroke-width="4.33"></path><path d="M1228.5 1027 a6.5 6.5 0 1 0 13 0 a6.5 6.5 0 1 0 -13 0zM1254.5 1183 a6.5 6.5 0 1 0 13 0 a6.5 6.5 0 1 0 -13 0zM1280.5 1599 a6.5 6.5 0 1 0 13 0 a6.5 6.5 0 1 0 -13 0zM1254.5 975 a6.5 6.5 0 1 0 13 0 a6.5 6.5 0 1 0 -13 0zM1280.5 1235 a6.5 6.5 0 1 0 13 0 a6.5 6.5 0 1 0 -13 0zM1280.5 897 a6.5 6.5 0 1 0 13 0 a6.5 6.5 0 1 0 -13 0zM1306.5 1183 a6.5 6.5 0 1 0 13 0 a6.5 6.5 0 1 0 -13 0zM1332.5 1235 a6.5 6.5 0 1 0 13 0 a6.5 6.5 0 1 0 -13 0z" fill="url(&quot;#SvgjsLinearGradient1554&quot;)"></path><path d="M1365 1365L1391 1339M1365 1339L1365 1313L1365 1287L1365 1261L1365 1235M1391 1443L1391 1417L1391 1391L1391 1365L1417 1339M1391 1469L1365 1443M1313 1729L1313 1703L1339 1677L1339 1651L1365 1625L1365 1599L1365 1573L1365 1547L1391 1521L1391 1495L1391 1469L1391 1443L1365 1417L1365 1391L1365 1365L1365 1339L1391 1313L1391 1287L1391 1261" stroke="url(&quot;#SvgjsLinearGradient1554&quot;)" stroke-width="4.33"></path><path d="M1384.5 1261 a6.5 6.5 0 1 0 13 0 a6.5 6.5 0 1 0 -13 0zM1384.5 1339 a6.5 6.5 0 1 0 13 0 a6.5 6.5 0 1 0 -13 0zM1358.5 1235 a6.5 6.5 0 1 0 13 0 a6.5 6.5 0 1 0 -13 0zM1410.5 1339 a6.5 6.5 0 1 0 13 0 a6.5 6.5 0 1 0 -13 0zM1358.5 1443 a6.5 6.5 0 1 0 13 0 a6.5 6.5 0 1 0 -13 0z" fill="url(&quot;#SvgjsLinearGradient1554&quot;)"></path><path d="M1235 1599L1209 1573L1209 1547M1235 741L1261 715M1209 1339L1183 1313M1209 1313L1235 1287M1209 1235L1235 1209L1235 1183L1235 1157L1235 1131M1209 1001L1209 975M1209 1053L1183 1027L1183 1001L1183 975L1183 949L1183 923L1183 897M1235 923L1235 897M1235 793L1209 767M1261 819L1261 793L1261 767L1261 741L1287 715L1287 689L1287 663L1287 637M1235 1729L1235 1703L1235 1677L1235 1651L1235 1625L1235 1599L1235 1573L1235 1547L1235 1521L1235 1495L1235 1469L1235 1443L1235 1417L1209 1391L1209 1365L1209 1339L1209 1313L1209 1287L1209 1261L1209 1235L1209 1209L1209 1183L1209 1157L1209 1131L1209 1105L1209 1079L1209 1053L1209 1027L1209 1001L1235 975L1235 949L1235 923L1261 897L1261 871L1261 845L1261 819L1235 793L1235 767L1235 741L1235 715" stroke="url(&quot;#SvgjsLinearGradient1554&quot;)" stroke-width="4.33"></path><path d="M1228.5 715 a6.5 6.5 0 1 0 13 0 a6.5 6.5 0 1 0 -13 0zM1202.5 1547 a6.5 6.5 0 1 0 13 0 a6.5 6.5 0 1 0 -13 0zM1254.5 715 a6.5 6.5 0 1 0 13 0 a6.5 6.5 0 1 0 -13 0zM1176.5 1313 a6.5 6.5 0 1 0 13 0 a6.5 6.5 0 1 0 -13 0zM1228.5 1287 a6.5 6.5 0 1 0 13 0 a6.5 6.5 0 1 0 -13 0zM1228.5 1131 a6.5 6.5 0 1 0 13 0 a6.5 6.5 0 1 0 -13 0zM1202.5 975 a6.5 6.5 0 1 0 13 0 a6.5 6.5 0 1 0 -13 0zM1176.5 897 a6.5 6.5 0 1 0 13 0 a6.5 6.5 0 1 0 -13 0zM1228.5 897 a6.5 6.5 0 1 0 13 0 a6.5 6.5 0 1 0 -13 0zM1202.5 767 a6.5 6.5 0 1 0 13 0 a6.5 6.5 0 1 0 -13 0zM1280.5 637 a6.5 6.5 0 1 0 13 0 a6.5 6.5 0 1 0 -13 0z" fill="url(&quot;#SvgjsLinearGradient1554&quot;)"></path><path d="M1417 1391L1417 1365M1417 1209L1443 1183M1417 1261L1443 1235L1443 1209M1443 1313L1443 1287L1443 1261M1339 1729L1339 1703L1365 1677L1365 1651L1391 1625L1391 1599L1391 1573L1391 1547L1417 1521L1417 1495L1417 1469L1417 1443L1417 1417L1417 1391L1443 1365L1443 1339L1443 1313L1417 1287L1417 1261L1417 1235L1417 1209L1417 1183" stroke="url(&quot;#SvgjsLinearGradient1554&quot;)" stroke-width="4.33"></path><path d="M1410.5 1183 a6.5 6.5 0 1 0 13 0 a6.5 6.5 0 1 0 -13 0zM1410.5 1365 a6.5 6.5 0 1 0 13 0 a6.5 6.5 0 1 0 -13 0zM1436.5 1183 a6.5 6.5 0 1 0 13 0 a6.5 6.5 0 1 0 -13 0zM1436.5 1209 a6.5 6.5 0 1 0 13 0 a6.5 6.5 0 1 0 -13 0zM1436.5 1261 a6.5 6.5 0 1 0 13 0 a6.5 6.5 0 1 0 -13 0z" fill="url(&quot;#SvgjsLinearGradient1554&quot;)"></path><path d="M1183 1287L1157 1261M1183 1209L1157 1183L1157 1157L1157 1131M1183 1365L1183 1339M1209 1443L1183 1417M1209 1469L1183 1443M1209 1729L1209 1703L1209 1677L1209 1651L1209 1625L1183 1599L1183 1573L1183 1547L1183 1521L1183 1495L1209 1469L1209 1443L1209 1417L1183 1391L1183 1365L1157 1339L1157 1313L1183 1287L1183 1261L1183 1235L1183 1209L1183 1183" stroke="url(&quot;#SvgjsLinearGradient1554&quot;)" stroke-width="4.33"></path><path d="M1176.5 1183 a6.5 6.5 0 1 0 13 0 a6.5 6.5 0 1 0 -13 0zM1150.5 1261 a6.5 6.5 0 1 0 13 0 a6.5 6.5 0 1 0 -13 0zM1150.5 1131 a6.5 6.5 0 1 0 13 0 a6.5 6.5 0 1 0 -13 0zM1176.5 1339 a6.5 6.5 0 1 0 13 0 a6.5 6.5 0 1 0 -13 0zM1176.5 1417 a6.5 6.5 0 1 0 13 0 a6.5 6.5 0 1 0 -13 0zM1176.5 1443 a6.5 6.5 0 1 0 13 0 a6.5 6.5 0 1 0 -13 0z" fill="url(&quot;#SvgjsLinearGradient1554&quot;)"></path><path d="M1443 767L1469 741M1443 1521L1469 1495L1469 1469L1469 1443M1443 741L1417 715L1417 689M1443 1079L1417 1053L1417 1027M1443 1053L1469 1027L1469 1001M1469 1157L1443 1131L1443 1105L1417 1079L1391 1053M1469 1183L1495 1157L1495 1131L1495 1105L1495 1079L1495 1053L1495 1027L1495 1001L1495 975M1469 1209L1495 1183L1521 1157M1443 1001L1417 975M1443 871L1469 845L1469 819L1469 793L1469 767L1495 741L1521 715L1521 689L1521 663L1521 637L1521 611M1365 1729L1365 1703L1391 1677L1391 1651L1417 1625L1417 1599L1417 1573L1417 1547L1443 1521L1443 1495L1443 1469L1443 1443L1443 1417L1443 1391L1469 1365L1469 1339L1469 1313L1469 1287L1469 1261L1469 1235L1469 1209L1469 1183L1469 1157L1469 1131L1469 1105L1443 1079L1443 1053L1443 1027L1443 1001L1443 975L1443 949L1443 923L1443 897L1443 871L1443 845L1443 819L1443 793L1443 767L1443 741L1443 715" stroke="url(&quot;#SvgjsLinearGradient1554&quot;)" stroke-width="4.33"></path><path d="M1436.5 715 a6.5 6.5 0 1 0 13 0 a6.5 6.5 0 1 0 -13 0zM1462.5 741 a6.5 6.5 0 1 0 13 0 a6.5 6.5 0 1 0 -13 0zM1462.5 1443 a6.5 6.5 0 1 0 13 0 a6.5 6.5 0 1 0 -13 0zM1410.5 689 a6.5 6.5 0 1 0 13 0 a6.5 6.5 0 1 0 -13 0zM1410.5 1027 a6.5 6.5 0 1 0 13 0 a6.5 6.5 0 1 0 -13 0zM1462.5 1001 a6.5 6.5 0 1 0 13 0 a6.5 6.5 0 1 0 -13 0zM1384.5 1053 a6.5 6.5 0 1 0 13 0 a6.5 6.5 0 1 0 -13 0zM1488.5 975 a6.5 6.5 0 1 0 13 0 a6.5 6.5 0 1 0 -13 0zM1514.5 1157 a6.5 6.5 0 1 0 13 0 a6.5 6.5 0 1 0 -13 0zM1410.5 975 a6.5 6.5 0 1 0 13 0 a6.5 6.5 0 1 0 -13 0zM1514.5 611 a6.5 6.5 0 1 0 13 0 a6.5 6.5 0 1 0 -13 0z" fill="url(&quot;#SvgjsLinearGradient1554&quot;)"></path><path d="M1053 975L1079 949M1105 1183L1131 1157M1105 1209L1131 1183M1105 1261L1131 1235L1157 1209M1157 1443L1131 1417L1131 1391M1053 1027L1079 1001L1079 975M1053 1105L1079 1079L1079 1053L1079 1027L1105 1001L1105 975L1105 949L1105 923L1105 897M1183 1729L1183 1703L1183 1677L1183 1651L1183 1625L1157 1599L1157 1573L1157 1547L1157 1521L1157 1495L1157 1469L1157 1443L1157 1417L1157 1391L1157 1365L1131 1339L1131 1313L1131 1287L1105 1261L1105 1235L1105 1209L1105 1183L1105 1157L1079 1131L1053 1105L1053 1079L1053 1053L1053 1027L1053 1001L1053 975L1053 949" stroke="url(&quot;#SvgjsLinearGradient1554&quot;)" stroke-width="4.33"></path><path d="M1046.5 949 a6.5 6.5 0 1 0 13 0 a6.5 6.5 0 1 0 -13 0zM1072.5 949 a6.5 6.5 0 1 0 13 0 a6.5 6.5 0 1 0 -13 0zM1124.5 1157 a6.5 6.5 0 1 0 13 0 a6.5 6.5 0 1 0 -13 0zM1124.5 1183 a6.5 6.5 0 1 0 13 0 a6.5 6.5 0 1 0 -13 0zM1150.5 1209 a6.5 6.5 0 1 0 13 0 a6.5 6.5 0 1 0 -13 0zM1124.5 1391 a6.5 6.5 0 1 0 13 0 a6.5 6.5 0 1 0 -13 0zM1072.5 975 a6.5 6.5 0 1 0 13 0 a6.5 6.5 0 1 0 -13 0zM1098.5 897 a6.5 6.5 0 1 0 13 0 a6.5 6.5 0 1 0 -13 0z" fill="url(&quot;#SvgjsLinearGradient1554&quot;)"></path><path d="M1391 1729L1391 1703L1417 1677L1417 1651L1443 1625L1443 1599L1443 1573" stroke="url(&quot;#SvgjsLinearGradient1554&quot;)" stroke-width="4.33"></path><path d="M1436.5 1573 a6.5 6.5 0 1 0 13 0 a6.5 6.5 0 1 0 -13 0z" fill="url(&quot;#SvgjsLinearGradient1554&quot;)"></path><path d="M1027 767L1053 741L1079 715L1079 689L1053 663L1053 637M1105 1469L1079 1443L1079 1417L1079 1391M1105 1339L1079 1313M1079 1183L1053 1157M1027 715L1053 689M1027 923L1053 897L1053 871L1053 845L1053 819L1053 793L1053 767L1079 741L1105 715L1105 689L1105 663M1131 1521L1105 1495L1079 1469M1105 1365L1079 1339M1079 1235L1053 1209M1131 1495L1131 1469L1131 1443M1157 1729L1157 1703L1157 1677L1157 1651L1157 1625L1131 1599L1131 1573L1131 1547L1131 1521L1131 1495L1105 1469L1105 1443L1105 1417L1105 1391L1105 1365L1105 1339L1105 1313L1105 1287L1079 1261L1079 1235L1079 1209L1079 1183L1079 1157L1053 1131L1027 1105L1027 1079L1027 1053L1027 1027L1027 1001L1027 975L1027 949L1027 923L1027 897L1027 871L1027 845L1027 819L1027 793L1027 767L1027 741L1027 715L1001 689" stroke="url(&quot;#SvgjsLinearGradient1554&quot;)" stroke-width="4.33"></path><path d="M994.5 689 a6.5 6.5 0 1 0 13 0 a6.5 6.5 0 1 0 -13 0zM1046.5 637 a6.5 6.5 0 1 0 13 0 a6.5 6.5 0 1 0 -13 0zM1072.5 1391 a6.5 6.5 0 1 0 13 0 a6.5 6.5 0 1 0 -13 0zM1072.5 1313 a6.5 6.5 0 1 0 13 0 a6.5 6.5 0 1 0 -13 0zM1046.5 1157 a6.5 6.5 0 1 0 13 0 a6.5 6.5 0 1 0 -13 0zM1046.5 689 a6.5 6.5 0 1 0 13 0 a6.5 6.5 0 1 0 -13 0zM1098.5 663 a6.5 6.5 0 1 0 13 0 a6.5 6.5 0 1 0 -13 0zM1072.5 1469 a6.5 6.5 0 1 0 13 0 a6.5 6.5 0 1 0 -13 0zM1072.5 1339 a6.5 6.5 0 1 0 13 0 a6.5 6.5 0 1 0 -13 0zM1046.5 1209 a6.5 6.5 0 1 0 13 0 a6.5 6.5 0 1 0 -13 0zM1124.5 1443 a6.5 6.5 0 1 0 13 0 a6.5 6.5 0 1 0 -13 0z" fill="url(&quot;#SvgjsLinearGradient1554&quot;)"></path><path d="M1417 1729L1417 1703L1443 1677L1443 1651L1469 1625L1469 1599L1469 1573" stroke="url(&quot;#SvgjsLinearGradient1554&quot;)" stroke-width="4.33"></path><path d="M1462.5 1573 a6.5 6.5 0 1 0 13 0 a6.5 6.5 0 1 0 -13 0z" fill="url(&quot;#SvgjsLinearGradient1554&quot;)"></path><path d="M1105 1547L1105 1521M1131 1729L1131 1703L1131 1677L1131 1651L1131 1625L1105 1599L1105 1573L1105 1547L1079 1521" stroke="url(&quot;#SvgjsLinearGradient1554&quot;)" stroke-width="4.33"></path><path d="M1072.5 1521 a6.5 6.5 0 1 0 13 0 a6.5 6.5 0 1 0 -13 0zM1098.5 1521 a6.5 6.5 0 1 0 13 0 a6.5 6.5 0 1 0 -13 0z" fill="url(&quot;#SvgjsLinearGradient1554&quot;)"></path><path d="M1495 1547L1469 1521M1495 1365L1521 1339M1495 1313L1521 1287L1521 1261L1521 1235M1469 1677L1495 1651M1443 1729L1469 1703L1469 1677L1469 1651L1495 1625L1495 1599L1495 1573L1495 1547L1495 1521L1495 1495L1495 1469L1495 1443L1495 1417L1495 1391L1495 1365L1495 1339L1495 1313L1495 1287L1495 1261" stroke="url(&quot;#SvgjsLinearGradient1554&quot;)" stroke-width="4.33"></path><path d="M1488.5 1261 a6.5 6.5 0 1 0 13 0 a6.5 6.5 0 1 0 -13 0zM1462.5 1521 a6.5 6.5 0 1 0 13 0 a6.5 6.5 0 1 0 -13 0zM1514.5 1339 a6.5 6.5 0 1 0 13 0 a6.5 6.5 0 1 0 -13 0zM1514.5 1235 a6.5 6.5 0 1 0 13 0 a6.5 6.5 0 1 0 -13 0zM1488.5 1651 a6.5 6.5 0 1 0 13 0 a6.5 6.5 0 1 0 -13 0z" fill="url(&quot;#SvgjsLinearGradient1554&quot;)"></path><path d="M975 507L949 481L949 455L949 429M975 533L1001 507L1001 481L1001 455M975 429L1001 403M975 689L949 663L949 637L949 611L949 585L949 559L949 533L949 507L923 481L923 455M1027 1209L1001 1183L1001 1157M1027 1157L1027 1131M975 611L1001 585L1001 559L1001 533L1027 507L1027 481L1027 455L1027 429L1027 403M1001 871L975 845L975 819L975 793M1053 1313L1027 1287L1001 1261L1001 1235L1001 1209M1027 1261L1053 1235M975 637L1001 611L1027 585L1027 559L1027 533L1053 507L1053 481L1053 455L1053 429L1053 403M1053 1287L1053 1261M1105 1729L1105 1703L1105 1677L1105 1651L1105 1625L1079 1599L1079 1573L1079 1547L1053 1521L1053 1495L1053 1469L1053 1443L1053 1417L1053 1391L1053 1365L1053 1339L1053 1313L1053 1287L1027 1261L1027 1235L1027 1209L1027 1183L1027 1157L1001 1131L1001 1105L1001 1079L1001 1053L1001 1027L1001 1001L1001 975L1001 949L1001 923L1001 897L1001 871L1001 845L1001 819L1001 793L1001 767L1001 741L1001 715L975 689L975 663L975 637L975 611L975 585L975 559L975 533L975 507L975 481L975 455L975 429L975 403" stroke="url(&quot;#SvgjsLinearGradient1554&quot;)" stroke-width="4.33"></path><path d="M968.5 403 a6.5 6.5 0 1 0 13 0 a6.5 6.5 0 1 0 -13 0zM942.5 429 a6.5 6.5 0 1 0 13 0 a6.5 6.5 0 1 0 -13 0zM994.5 455 a6.5 6.5 0 1 0 13 0 a6.5 6.5 0 1 0 -13 0zM994.5 403 a6.5 6.5 0 1 0 13 0 a6.5 6.5 0 1 0 -13 0zM916.5 455 a6.5 6.5 0 1 0 13 0 a6.5 6.5 0 1 0 -13 0zM994.5 1157 a6.5 6.5 0 1 0 13 0 a6.5 6.5 0 1 0 -13 0zM1020.5 1131 a6.5 6.5 0 1 0 13 0 a6.5 6.5 0 1 0 -13 0zM1020.5 403 a6.5 6.5 0 1 0 13 0 a6.5 6.5 0 1 0 -13 0zM968.5 793 a6.5 6.5 0 1 0 13 0 a6.5 6.5 0 1 0 -13 0zM994.5 1209 a6.5 6.5 0 1 0 13 0 a6.5 6.5 0 1 0 -13 0zM1046.5 1235 a6.5 6.5 0 1 0 13 0 a6.5 6.5 0 1 0 -13 0zM1046.5 403 a6.5 6.5 0 1 0 13 0 a6.5 6.5 0 1 0 -13 0zM1046.5 1261 a6.5 6.5 0 1 0 13 0 a6.5 6.5 0 1 0 -13 0z" fill="url(&quot;#SvgjsLinearGradient1554&quot;)"></path><path d="M1027 1365L1027 1339L1027 1313M1079 1729L1079 1703L1079 1677L1079 1651L1079 1625L1053 1599L1053 1573L1053 1547L1027 1521L1027 1495L1027 1469L1027 1443L1027 1417L1027 1391L1027 1365L1001 1339L1001 1313" stroke="url(&quot;#SvgjsLinearGradient1554&quot;)" stroke-width="4.33"></path><path d="M994.5 1313 a6.5 6.5 0 1 0 13 0 a6.5 6.5 0 1 0 -13 0zM1020.5 1313 a6.5 6.5 0 1 0 13 0 a6.5 6.5 0 1 0 -13 0z" fill="url(&quot;#SvgjsLinearGradient1554&quot;)"></path><path d="M1495 1729L1495 1703" stroke="url(&quot;#SvgjsLinearGradient1554&quot;)" stroke-width="4.33"></path><path d="M1488.5 1703 a6.5 6.5 0 1 0 13 0 a6.5 6.5 0 1 0 -13 0z" fill="url(&quot;#SvgjsLinearGradient1554&quot;)"></path><path d="M975 1183L949 1157M1053 1729L1053 1703L1053 1677L1053 1651L1053 1625L1027 1599L1027 1573L1027 1547L1001 1521L1001 1495L1001 1469L1001 1443L1001 1417L1001 1391L1001 1365L975 1339L975 1313L975 1287L975 1261L975 1235L975 1209L975 1183L975 1157L975 1131L975 1105L975 1079L975 1053L975 1027L975 1001L975 975L975 949L975 923L975 897" stroke="url(&quot;#SvgjsLinearGradient1554&quot;)" stroke-width="4.33"></path><path d="M968.5 897 a6.5 6.5 0 1 0 13 0 a6.5 6.5 0 1 0 -13 0zM942.5 1157 a6.5 6.5 0 1 0 13 0 a6.5 6.5 0 1 0 -13 0z" fill="url(&quot;#SvgjsLinearGradient1554&quot;)"></path><path d="M1547 1261L1573 1235M1599 923L1573 897M1599 1079L1573 1053M1599 1131L1573 1105L1573 1079L1547 1053L1547 1027L1547 1001M1599 741L1573 715L1547 689L1547 663M1599 1027L1573 1001L1573 975L1547 949L1547 923M1547 1391L1521 1365M1521 1443L1521 1417L1521 1391M1599 793L1573 767L1573 741L1547 715M1521 1703L1521 1677L1521 1651M1521 1729L1521 1703L1547 1677L1547 1651L1521 1625L1521 1599L1521 1573L1521 1547L1521 1521L1521 1495L1521 1469L1521 1443L1547 1417L1547 1391L1547 1365L1547 1339L1547 1313L1547 1287L1547 1261L1547 1235L1573 1209L1573 1183L1573 1157L1599 1131L1599 1105L1599 1079L1599 1053L1599 1027L1599 1001L1599 975L1599 949L1599 923L1599 897L1599 871L1599 845L1599 819L1599 793L1599 767L1599 741L1599 715L1573 689" stroke="url(&quot;#SvgjsLinearGradient1554&quot;)" stroke-width="4.33"></path><path d="M1566.5 689 a6.5 6.5 0 1 0 13 0 a6.5 6.5 0 1 0 -13 0zM1566.5 1235 a6.5 6.5 0 1 0 13 0 a6.5 6.5 0 1 0 -13 0zM1566.5 897 a6.5 6.5 0 1 0 13 0 a6.5 6.5 0 1 0 -13 0zM1566.5 1053 a6.5 6.5 0 1 0 13 0 a6.5 6.5 0 1 0 -13 0zM1540.5 1001 a6.5 6.5 0 1 0 13 0 a6.5 6.5 0 1 0 -13 0zM1540.5 663 a6.5 6.5 0 1 0 13 0 a6.5 6.5 0 1 0 -13 0zM1540.5 923 a6.5 6.5 0 1 0 13 0 a6.5 6.5 0 1 0 -13 0zM1514.5 1365 a6.5 6.5 0 1 0 13 0 a6.5 6.5 0 1 0 -13 0zM1514.5 1391 a6.5 6.5 0 1 0 13 0 a6.5 6.5 0 1 0 -13 0zM1540.5 715 a6.5 6.5 0 1 0 13 0 a6.5 6.5 0 1 0 -13 0zM1514.5 1651 a6.5 6.5 0 1 0 13 0 a6.5 6.5 0 1 0 -13 0z" fill="url(&quot;#SvgjsLinearGradient1554&quot;)"></path><path d="M1027 1729L1027 1703L1027 1677L1027 1651L1027 1625L1001 1599L1001 1573L1001 1547L975 1521L975 1495L975 1469L975 1443L975 1417L975 1391L975 1365L949 1339L949 1313L949 1287L949 1261L949 1235L949 1209" stroke="url(&quot;#SvgjsLinearGradient1554&quot;)" stroke-width="4.33"></path><path d="M942.5 1209 a6.5 6.5 0 1 0 13 0 a6.5 6.5 0 1 0 -13 0z" fill="url(&quot;#SvgjsLinearGradient1554&quot;)"></path><path d="M1547 1521L1573 1495L1573 1469L1573 1443M1547 1625L1573 1599L1573 1573L1573 1547L1573 1521M1547 1729L1547 1703L1573 1677L1573 1651L1547 1625L1547 1599L1547 1573L1547 1547L1547 1521L1547 1495L1547 1469L1547 1443L1573 1417" stroke="url(&quot;#SvgjsLinearGradient1554&quot;)" stroke-width="4.33"></path><path d="M1566.5 1417 a6.5 6.5 0 1 0 13 0 a6.5 6.5 0 1 0 -13 0zM1566.5 1443 a6.5 6.5 0 1 0 13 0 a6.5 6.5 0 1 0 -13 0zM1566.5 1521 a6.5 6.5 0 1 0 13 0 a6.5 6.5 0 1 0 -13 0z" fill="url(&quot;#SvgjsLinearGradient1554&quot;)"></path><path d="M949 1079L923 1053L923 1027L923 1001L923 975L923 949L923 923L923 897L923 871L923 845L923 819M949 1521L923 1495L923 1469M949 1417L923 1391L923 1365M923 1261L897 1235L897 1209L897 1183L897 1157M949 1443L923 1417M975 1573L949 1547L923 1521M949 793L949 767L949 741M949 1131L923 1105L923 1079L897 1053L897 1027L897 1001L897 975L897 949L897 923L871 897L871 871M1001 1729L1001 1703L1001 1677L1001 1651L1001 1625L975 1599L975 1573L975 1547L949 1521L949 1495L949 1469L949 1443L949 1417L949 1391L949 1365L923 1339L923 1313L923 1287L923 1261L923 1235L923 1209L923 1183L923 1157L949 1131L949 1105L949 1079L949 1053L949 1027L949 1001L949 975L949 949L949 923L949 897L949 871L949 845L949 819L949 793L975 767L975 741" stroke="url(&quot;#SvgjsLinearGradient1554&quot;)" stroke-width="4.33"></path><path d="M968.5 741 a6.5 6.5 0 1 0 13 0 a6.5 6.5 0 1 0 -13 0zM916.5 819 a6.5 6.5 0 1 0 13 0 a6.5 6.5 0 1 0 -13 0zM916.5 1469 a6.5 6.5 0 1 0 13 0 a6.5 6.5 0 1 0 -13 0zM916.5 1365 a6.5 6.5 0 1 0 13 0 a6.5 6.5 0 1 0 -13 0zM890.5 1157 a6.5 6.5 0 1 0 13 0 a6.5 6.5 0 1 0 -13 0zM916.5 1417 a6.5 6.5 0 1 0 13 0 a6.5 6.5 0 1 0 -13 0zM916.5 1521 a6.5 6.5 0 1 0 13 0 a6.5 6.5 0 1 0 -13 0zM942.5 741 a6.5 6.5 0 1 0 13 0 a6.5 6.5 0 1 0 -13 0zM864.5 871 a6.5 6.5 0 1 0 13 0 a6.5 6.5 0 1 0 -13 0z" fill="url(&quot;#SvgjsLinearGradient1554&quot;)"></path><path d="M1625 871L1651 845M1625 767L1651 741L1651 715M1625 1027L1651 1001M1599 1313L1573 1287L1573 1261M1599 1339L1573 1313M1625 1053L1651 1027M1625 819L1651 793L1677 767L1677 741L1677 715L1677 689L1677 663L1677 637L1677 611L1677 585L1651 559L1651 533L1651 507L1651 481M1599 1365L1573 1339M1625 689L1599 663L1599 637L1599 611L1599 585L1599 559L1599 533L1599 507L1599 481L1599 455L1599 429L1599 403M1573 1729L1573 1703L1599 1677L1599 1651L1599 1625L1599 1599L1599 1573L1599 1547L1599 1521L1599 1495L1599 1469L1599 1443L1599 1417L1599 1391L1599 1365L1599 1339L1599 1313L1599 1287L1599 1261L1599 1235L1599 1209L1599 1183L1599 1157L1625 1131L1625 1105L1625 1079L1625 1053L1625 1027L1625 1001L1625 975L1625 949L1625 923L1625 897L1625 871L1625 845L1625 819L1625 793L1625 767L1625 741L1625 715L1625 689L1625 663" stroke="url(&quot;#SvgjsLinearGradient1554&quot;)" stroke-width="4.33"></path><path d="M1618.5 663 a6.5 6.5 0 1 0 13 0 a6.5 6.5 0 1 0 -13 0zM1644.5 845 a6.5 6.5 0 1 0 13 0 a6.5 6.5 0 1 0 -13 0zM1644.5 715 a6.5 6.5 0 1 0 13 0 a6.5 6.5 0 1 0 -13 0zM1644.5 1001 a6.5 6.5 0 1 0 13 0 a6.5 6.5 0 1 0 -13 0zM1566.5 1261 a6.5 6.5 0 1 0 13 0 a6.5 6.5 0 1 0 -13 0zM1566.5 1313 a6.5 6.5 0 1 0 13 0 a6.5 6.5 0 1 0 -13 0zM1644.5 1027 a6.5 6.5 0 1 0 13 0 a6.5 6.5 0 1 0 -13 0zM1644.5 481 a6.5 6.5 0 1 0 13 0 a6.5 6.5 0 1 0 -13 0zM1566.5 1339 a6.5 6.5 0 1 0 13 0 a6.5 6.5 0 1 0 -13 0zM1592.5 403 a6.5 6.5 0 1 0 13 0 a6.5 6.5 0 1 0 -13 0z" fill="url(&quot;#SvgjsLinearGradient1554&quot;)"></path><path d="M975 1729L975 1703L975 1677L975 1651L975 1625L949 1599" stroke="url(&quot;#SvgjsLinearGradient1554&quot;)" stroke-width="4.33"></path><path d="M942.5 1599 a6.5 6.5 0 1 0 13 0 a6.5 6.5 0 1 0 -13 0z" fill="url(&quot;#SvgjsLinearGradient1554&quot;)"></path><path d="M1651 1079L1651 1053M1677 1027L1703 1001M1651 975L1677 949L1677 923L1677 897L1677 871L1677 845L1677 819L1677 793M1677 1001L1677 975L1703 949L1703 923L1703 897M1599 1729L1599 1703L1625 1677L1625 1651L1625 1625L1625 1599L1625 1573L1625 1547L1625 1521L1625 1495L1625 1469L1625 1443L1625 1417L1625 1391L1625 1365L1625 1339L1625 1313L1625 1287L1625 1261L1625 1235L1625 1209L1625 1183L1625 1157L1651 1131L1651 1105L1651 1079L1677 1053L1677 1027L1677 1001L1651 975L1651 949L1651 923L1651 897" stroke="url(&quot;#SvgjsLinearGradient1554&quot;)" stroke-width="4.33"></path><path d="M1644.5 897 a6.5 6.5 0 1 0 13 0 a6.5 6.5 0 1 0 -13 0zM1644.5 1053 a6.5 6.5 0 1 0 13 0 a6.5 6.5 0 1 0 -13 0zM1696.5 1001 a6.5 6.5 0 1 0 13 0 a6.5 6.5 0 1 0 -13 0zM1670.5 793 a6.5 6.5 0 1 0 13 0 a6.5 6.5 0 1 0 -13 0zM1696.5 897 a6.5 6.5 0 1 0 13 0 a6.5 6.5 0 1 0 -13 0z" fill="url(&quot;#SvgjsLinearGradient1554&quot;)"></path><path d="M897 1313L897 1287L897 1261L871 1235L871 1209M949 1651L923 1625M897 1495L871 1469L871 1443M845 1157L871 1131L871 1105L871 1079M871 1287L871 1261M845 975L871 949L871 923L845 897L845 871L845 845L845 819L845 793L845 767L845 741M897 1521L871 1495M949 1729L949 1703L949 1677L949 1651L949 1625L923 1599L897 1573L897 1547L897 1521L897 1495L897 1469L897 1443L897 1417L897 1391L897 1365L897 1339L897 1313L871 1287L845 1261L845 1235L845 1209L845 1183L845 1157L845 1131L845 1105L845 1079L871 1053L871 1027L871 1001L845 975L845 949" stroke="url(&quot;#SvgjsLinearGradient1554&quot;)" stroke-width="4.33"></path><path d="M838.5 949 a6.5 6.5 0 1 0 13 0 a6.5 6.5 0 1 0 -13 0zM864.5 1209 a6.5 6.5 0 1 0 13 0 a6.5 6.5 0 1 0 -13 0zM916.5 1625 a6.5 6.5 0 1 0 13 0 a6.5 6.5 0 1 0 -13 0zM864.5 1443 a6.5 6.5 0 1 0 13 0 a6.5 6.5 0 1 0 -13 0zM864.5 1079 a6.5 6.5 0 1 0 13 0 a6.5 6.5 0 1 0 -13 0zM864.5 1261 a6.5 6.5 0 1 0 13 0 a6.5 6.5 0 1 0 -13 0zM838.5 741 a6.5 6.5 0 1 0 13 0 a6.5 6.5 0 1 0 -13 0zM864.5 1495 a6.5 6.5 0 1 0 13 0 a6.5 6.5 0 1 0 -13 0z" fill="url(&quot;#SvgjsLinearGradient1554&quot;)"></path><path d="M1651 1287L1677 1261L1677 1235L1677 1209L1677 1183L1677 1157M1651 1547L1677 1521M1651 1391L1677 1365L1677 1339M1651 1573L1677 1547M1651 1495L1677 1469L1677 1443L1677 1417L1677 1391L1703 1365L1703 1339L1703 1313M1651 1313L1677 1287L1703 1261L1703 1235L1703 1209L1703 1183L1703 1157M1625 1729L1625 1703L1651 1677L1651 1651L1651 1625L1651 1599L1651 1573L1651 1547L1651 1521L1651 1495L1651 1469L1651 1443L1651 1417L1651 1391L1651 1365L1651 1339L1651 1313L1651 1287L1651 1261L1651 1235L1651 1209L1651 1183L1651 1157L1677 1131L1677 1105L1677 1079" stroke="url(&quot;#SvgjsLinearGradient1554&quot;)" stroke-width="4.33"></path><path d="M1670.5 1079 a6.5 6.5 0 1 0 13 0 a6.5 6.5 0 1 0 -13 0zM1670.5 1157 a6.5 6.5 0 1 0 13 0 a6.5 6.5 0 1 0 -13 0zM1670.5 1521 a6.5 6.5 0 1 0 13 0 a6.5 6.5 0 1 0 -13 0zM1670.5 1339 a6.5 6.5 0 1 0 13 0 a6.5 6.5 0 1 0 -13 0zM1670.5 1547 a6.5 6.5 0 1 0 13 0 a6.5 6.5 0 1 0 -13 0zM1696.5 1313 a6.5 6.5 0 1 0 13 0 a6.5 6.5 0 1 0 -13 0zM1696.5 1157 a6.5 6.5 0 1 0 13 0 a6.5 6.5 0 1 0 -13 0z" fill="url(&quot;#SvgjsLinearGradient1554&quot;)"></path><path d="M845 1365L871 1339L871 1313M819 1131L793 1105L793 1079L793 1053L793 1027L793 1001L793 975M845 1547L871 1521M871 1573L871 1547M819 1157L793 1131M819 1079L819 1053L819 1027L819 1001M845 1443L845 1417L845 1391M923 1729L923 1703L923 1677L897 1651L897 1625L897 1599L871 1573L845 1547L845 1521L845 1495L845 1469L845 1443L871 1417L871 1391L845 1365L845 1339L845 1313L845 1287L819 1261L819 1235L819 1209L819 1183L819 1157L819 1131L819 1105L819 1079L845 1053L845 1027L845 1001L819 975L819 949" stroke="url(&quot;#SvgjsLinearGradient1554&quot;)" stroke-width="4.33"></path><path d="M812.5 949 a6.5 6.5 0 1 0 13 0 a6.5 6.5 0 1 0 -13 0zM864.5 1313 a6.5 6.5 0 1 0 13 0 a6.5 6.5 0 1 0 -13 0zM786.5 975 a6.5 6.5 0 1 0 13 0 a6.5 6.5 0 1 0 -13 0zM864.5 1521 a6.5 6.5 0 1 0 13 0 a6.5 6.5 0 1 0 -13 0zM864.5 1547 a6.5 6.5 0 1 0 13 0 a6.5 6.5 0 1 0 -13 0zM786.5 1131 a6.5 6.5 0 1 0 13 0 a6.5 6.5 0 1 0 -13 0zM812.5 1001 a6.5 6.5 0 1 0 13 0 a6.5 6.5 0 1 0 -13 0zM838.5 1391 a6.5 6.5 0 1 0 13 0 a6.5 6.5 0 1 0 -13 0z" fill="url(&quot;#SvgjsLinearGradient1554&quot;)"></path><path d="M1651 1729L1651 1703L1677 1677L1677 1651L1677 1625L1677 1599" stroke="url(&quot;#SvgjsLinearGradient1554&quot;)" stroke-width="4.33"></path><path d="M1670.5 1599 a6.5 6.5 0 1 0 13 0 a6.5 6.5 0 1 0 -13 0z" fill="url(&quot;#SvgjsLinearGradient1554&quot;)"></path><path d="M767 897L793 871L793 845M767 949L741 923L741 897L741 871L741 845M767 923L793 897M793 1209L793 1183L793 1157M767 1027L741 1001L741 975L741 949M767 1053L741 1027M897 1729L897 1703L897 1677L871 1651L871 1625L871 1599L845 1573L819 1547L819 1521L819 1495L819 1469L819 1443L819 1417L819 1391L819 1365L819 1339L819 1313L819 1287L793 1261L793 1235L793 1209L767 1183L767 1157L767 1131L767 1105L767 1079L767 1053L767 1027L767 1001L767 975L767 949L767 923L767 897L767 871" stroke="url(&quot;#SvgjsLinearGradient1554&quot;)" stroke-width="4.33"></path><path d="M760.5 871 a6.5 6.5 0 1 0 13 0 a6.5 6.5 0 1 0 -13 0zM786.5 845 a6.5 6.5 0 1 0 13 0 a6.5 6.5 0 1 0 -13 0zM734.5 845 a6.5 6.5 0 1 0 13 0 a6.5 6.5 0 1 0 -13 0zM786.5 897 a6.5 6.5 0 1 0 13 0 a6.5 6.5 0 1 0 -13 0zM786.5 1157 a6.5 6.5 0 1 0 13 0 a6.5 6.5 0 1 0 -13 0zM734.5 949 a6.5 6.5 0 1 0 13 0 a6.5 6.5 0 1 0 -13 0zM734.5 1027 a6.5 6.5 0 1 0 13 0 a6.5 6.5 0 1 0 -13 0z" fill="url(&quot;#SvgjsLinearGradient1554&quot;)"></path><path d="M1703 1625L1729 1599M1729 1443L1703 1417L1703 1391M1703 1495L1729 1469L1755 1443M1703 1469L1703 1443M1729 923L1729 897L1729 871L1729 845M1729 1079L1703 1053L1703 1027M1729 975L1755 949L1755 923L1781 897M1729 1053L1755 1027L1755 1001L1755 975M1677 1729L1677 1703L1703 1677L1703 1651L1703 1625L1703 1599L1703 1573L1703 1547L1703 1521L1703 1495L1703 1469L1729 1443L1729 1417L1729 1391L1729 1365L1729 1339L1729 1313L1729 1287L1729 1261L1729 1235L1729 1209L1729 1183L1729 1157L1729 1131L1729 1105L1729 1079L1729 1053L1729 1027L1729 1001L1729 975L1729 949L1729 923L1755 897" stroke="url(&quot;#SvgjsLinearGradient1554&quot;)" stroke-width="4.33"></path><path d="M1748.5 897 a6.5 6.5 0 1 0 13 0 a6.5 6.5 0 1 0 -13 0zM1722.5 1599 a6.5 6.5 0 1 0 13 0 a6.5 6.5 0 1 0 -13 0zM1696.5 1391 a6.5 6.5 0 1 0 13 0 a6.5 6.5 0 1 0 -13 0zM1748.5 1443 a6.5 6.5 0 1 0 13 0 a6.5 6.5 0 1 0 -13 0zM1696.5 1443 a6.5 6.5 0 1 0 13 0 a6.5 6.5 0 1 0 -13 0zM1722.5 845 a6.5 6.5 0 1 0 13 0 a6.5 6.5 0 1 0 -13 0zM1696.5 1027 a6.5 6.5 0 1 0 13 0 a6.5 6.5 0 1 0 -13 0zM1774.5 897 a6.5 6.5 0 1 0 13 0 a6.5 6.5 0 1 0 -13 0zM1748.5 975 a6.5 6.5 0 1 0 13 0 a6.5 6.5 0 1 0 -13 0z" fill="url(&quot;#SvgjsLinearGradient1554&quot;)"></path><path d="M793 1313L767 1287M715 845L689 819L689 793L689 767M689 507L715 481M689 715L663 689L663 663L663 637L663 611M689 611L715 585L715 559L715 533M689 585L663 559L663 533L663 507L663 481L663 455M715 793L741 767L741 741L741 715L741 689L741 663L741 637L741 611L741 585L741 559L767 533L767 507L767 481L767 455L767 429L767 403M689 637L715 611M689 741L663 715M793 1443L767 1417L767 1391L767 1365L767 1339M715 767L715 741L715 715L715 689M689 429L715 403M689 663L715 637M871 1729L871 1703L871 1677L845 1651L845 1625L845 1599L819 1573L793 1547L793 1521L793 1495L793 1469L793 1443L793 1417L793 1391L793 1365L793 1339L793 1313L793 1287L767 1261L767 1235L767 1209L741 1183L741 1157L741 1131L741 1105L741 1079L715 1053L715 1027L715 1001L715 975L715 949L715 923L715 897L715 871L715 845L715 819L715 793L715 767L689 741L689 715L689 689L689 663L689 637L689 611L689 585L689 559L689 533L689 507L689 481L689 455L689 429L689 403" stroke="url(&quot;#SvgjsLinearGradient1554&quot;)" stroke-width="4.33"></path><path d="M682.5 403 a6.5 6.5 0 1 0 13 0 a6.5 6.5 0 1 0 -13 0zM760.5 1287 a6.5 6.5 0 1 0 13 0 a6.5 6.5 0 1 0 -13 0zM682.5 767 a6.5 6.5 0 1 0 13 0 a6.5 6.5 0 1 0 -13 0zM708.5 481 a6.5 6.5 0 1 0 13 0 a6.5 6.5 0 1 0 -13 0zM656.5 611 a6.5 6.5 0 1 0 13 0 a6.5 6.5 0 1 0 -13 0zM708.5 533 a6.5 6.5 0 1 0 13 0 a6.5 6.5 0 1 0 -13 0zM656.5 455 a6.5 6.5 0 1 0 13 0 a6.5 6.5 0 1 0 -13 0zM760.5 403 a6.5 6.5 0 1 0 13 0 a6.5 6.5 0 1 0 -13 0zM708.5 611 a6.5 6.5 0 1 0 13 0 a6.5 6.5 0 1 0 -13 0zM656.5 715 a6.5 6.5 0 1 0 13 0 a6.5 6.5 0 1 0 -13 0zM760.5 1339 a6.5 6.5 0 1 0 13 0 a6.5 6.5 0 1 0 -13 0zM708.5 689 a6.5 6.5 0 1 0 13 0 a6.5 6.5 0 1 0 -13 0zM708.5 403 a6.5 6.5 0 1 0 13 0 a6.5 6.5 0 1 0 -13 0zM708.5 637 a6.5 6.5 0 1 0 13 0 a6.5 6.5 0 1 0 -13 0z" fill="url(&quot;#SvgjsLinearGradient1554&quot;)"></path><path d="M1729 1651L1729 1625M1703 1729L1729 1703L1729 1677L1729 1651L1755 1625L1755 1599L1755 1573" stroke="url(&quot;#SvgjsLinearGradient1554&quot;)" stroke-width="4.33"></path><path d="M1748.5 1573 a6.5 6.5 0 1 0 13 0 a6.5 6.5 0 1 0 -13 0zM1722.5 1625 a6.5 6.5 0 1 0 13 0 a6.5 6.5 0 1 0 -13 0z" fill="url(&quot;#SvgjsLinearGradient1554&quot;)"></path><path d="M715 1183L689 1157L689 1131M689 923L663 897L663 871L663 845L663 819L663 793L663 767L663 741M767 1469L767 1443M741 1235L715 1209L689 1183M689 949L663 923M715 1105L689 1079M845 1729L845 1703L845 1677L819 1651L819 1625L819 1599L793 1573L767 1547L767 1521L767 1495L767 1469L741 1443L741 1417L741 1391L741 1365L741 1339L741 1313L741 1287L741 1261L741 1235L741 1209L715 1183L715 1157L715 1131L715 1105L715 1079L689 1053L689 1027L689 1001L689 975L689 949L689 923L689 897L689 871" stroke="url(&quot;#SvgjsLinearGradient1554&quot;)" stroke-width="4.33"></path><path d="M682.5 871 a6.5 6.5 0 1 0 13 0 a6.5 6.5 0 1 0 -13 0zM682.5 1131 a6.5 6.5 0 1 0 13 0 a6.5 6.5 0 1 0 -13 0zM656.5 741 a6.5 6.5 0 1 0 13 0 a6.5 6.5 0 1 0 -13 0zM760.5 1443 a6.5 6.5 0 1 0 13 0 a6.5 6.5 0 1 0 -13 0zM682.5 1183 a6.5 6.5 0 1 0 13 0 a6.5 6.5 0 1 0 -13 0zM656.5 923 a6.5 6.5 0 1 0 13 0 a6.5 6.5 0 1 0 -13 0zM682.5 1079 a6.5 6.5 0 1 0 13 0 a6.5 6.5 0 1 0 -13 0z" fill="url(&quot;#SvgjsLinearGradient1554&quot;)"></path><path d="M819 1729L819 1703L819 1677L793 1651L793 1625L793 1599L767 1573L741 1547L741 1521L741 1495L741 1469L715 1443L715 1417L715 1391L715 1365L715 1339L715 1313L715 1287L715 1261" stroke="url(&quot;#SvgjsLinearGradient1554&quot;)" stroke-width="4.33"></path><path d="M708.5 1261 a6.5 6.5 0 1 0 13 0 a6.5 6.5 0 1 0 -13 0z" fill="url(&quot;#SvgjsLinearGradient1554&quot;)"></path><path d="M1781 1547L1755 1521L1755 1495L1755 1469M1781 1521L1807 1495L1807 1469L1833 1443L1833 1417M1755 1339L1781 1313L1781 1287L1781 1261L1781 1235L1781 1209L1781 1183L1781 1157M1755 1105L1781 1079L1807 1053M1781 1027L1807 1001M1755 1079L1755 1053M1755 1391L1781 1365L1781 1339L1807 1313L1807 1287M1755 1729L1755 1703L1755 1677L1755 1651L1781 1625L1781 1599L1781 1573L1781 1547L1781 1521L1781 1495L1781 1469L1781 1443L1755 1417L1755 1391L1755 1365L1755 1339L1755 1313L1755 1287L1755 1261L1755 1235L1755 1209L1755 1183L1755 1157L1755 1131L1755 1105L1755 1079L1781 1053L1781 1027L1781 1001L1781 975" stroke="url(&quot;#SvgjsLinearGradient1554&quot;)" stroke-width="4.33"></path><path d="M1774.5 975 a6.5 6.5 0 1 0 13 0 a6.5 6.5 0 1 0 -13 0zM1748.5 1469 a6.5 6.5 0 1 0 13 0 a6.5 6.5 0 1 0 -13 0zM1826.5 1417 a6.5 6.5 0 1 0 13 0 a6.5 6.5 0 1 0 -13 0zM1774.5 1157 a6.5 6.5 0 1 0 13 0 a6.5 6.5 0 1 0 -13 0zM1800.5 1053 a6.5 6.5 0 1 0 13 0 a6.5 6.5 0 1 0 -13 0zM1800.5 1001 a6.5 6.5 0 1 0 13 0 a6.5 6.5 0 1 0 -13 0zM1748.5 1053 a6.5 6.5 0 1 0 13 0 a6.5 6.5 0 1 0 -13 0zM1800.5 1287 a6.5 6.5 0 1 0 13 0 a6.5 6.5 0 1 0 -13 0z" fill="url(&quot;#SvgjsLinearGradient1554&quot;)"></path><path d="M637 715L611 689L611 663L585 637L585 611L585 585L585 559L585 533L559 507M637 949L611 923L611 897L611 871M637 845L611 819L611 793L611 767L611 741L611 715L585 689L585 663L559 637L559 611L559 585M663 1235L689 1209M689 1261L689 1235M663 975L663 949M793 1729L793 1703L793 1677L767 1651L767 1625L767 1599L741 1573L715 1547L715 1521L715 1495L715 1469L689 1443L689 1417L689 1391L689 1365L689 1339L689 1313L689 1287L689 1261L663 1235L663 1209L663 1183L663 1157L663 1131L663 1105L663 1079L663 1053L663 1027L663 1001L663 975L637 949L637 923L637 897L637 871L637 845L637 819L637 793L637 767L637 741L637 715L637 689" stroke="url(&quot;#SvgjsLinearGradient1554&quot;)" stroke-width="4.33"></path><path d="M630.5 689 a6.5 6.5 0 1 0 13 0 a6.5 6.5 0 1 0 -13 0zM552.5 507 a6.5 6.5 0 1 0 13 0 a6.5 6.5 0 1 0 -13 0zM604.5 871 a6.5 6.5 0 1 0 13 0 a6.5 6.5 0 1 0 -13 0zM552.5 585 a6.5 6.5 0 1 0 13 0 a6.5 6.5 0 1 0 -13 0zM682.5 1209 a6.5 6.5 0 1 0 13 0 a6.5 6.5 0 1 0 -13 0zM682.5 1235 a6.5 6.5 0 1 0 13 0 a6.5 6.5 0 1 0 -13 0zM656.5 949 a6.5 6.5 0 1 0 13 0 a6.5 6.5 0 1 0 -13 0z" fill="url(&quot;#SvgjsLinearGradient1554&quot;)"></path><path d="M1859 1079L1833 1053M1859 1157L1833 1131L1833 1105L1833 1079M1833 1235L1807 1209L1807 1183M1781 1677L1807 1651M1833 1183L1833 1157L1807 1131L1807 1105L1807 1079M1859 1027L1833 1001L1807 975L1807 949L1833 923L1833 897L1833 871L1833 845L1833 819L1833 793L1833 767L1833 741L1807 715L1807 689L1807 663M1859 975L1833 949M1859 1261L1859 1235M1781 1729L1781 1703L1781 1677L1781 1651L1807 1625L1807 1599L1807 1573L1833 1547L1859 1521L1859 1495L1859 1469L1859 1443L1859 1417L1859 1391L1859 1365L1859 1339L1859 1313L1859 1287L1859 1261L1833 1235L1833 1209L1833 1183L1859 1157L1859 1131L1859 1105L1859 1079L1859 1053L1859 1027L1859 1001L1859 975L1859 949L1859 923L1885 897L1885 871" stroke="url(&quot;#SvgjsLinearGradient1554&quot;)" stroke-width="4.33"></path><path d="M1878.5 871 a6.5 6.5 0 1 0 13 0 a6.5 6.5 0 1 0 -13 0zM1826.5 1053 a6.5 6.5 0 1 0 13 0 a6.5 6.5 0 1 0 -13 0zM1826.5 1079 a6.5 6.5 0 1 0 13 0 a6.5 6.5 0 1 0 -13 0zM1800.5 1183 a6.5 6.5 0 1 0 13 0 a6.5 6.5 0 1 0 -13 0zM1800.5 1651 a6.5 6.5 0 1 0 13 0 a6.5 6.5 0 1 0 -13 0zM1800.5 1079 a6.5 6.5 0 1 0 13 0 a6.5 6.5 0 1 0 -13 0zM1800.5 663 a6.5 6.5 0 1 0 13 0 a6.5 6.5 0 1 0 -13 0zM1826.5 949 a6.5 6.5 0 1 0 13 0 a6.5 6.5 0 1 0 -13 0zM1852.5 1235 a6.5 6.5 0 1 0 13 0 a6.5 6.5 0 1 0 -13 0z" fill="url(&quot;#SvgjsLinearGradient1554&quot;)"></path><path d="M741 1625L741 1599M637 1001L611 975L611 949L585 923L585 897L585 871L585 845M637 1027L611 1001L585 975L585 949M637 1053L611 1027M637 1079L611 1053M767 1729L767 1703L767 1677L741 1651L741 1625L715 1599L715 1573L689 1547L689 1521L689 1495L689 1469L663 1443L663 1417L663 1391L663 1365L663 1339L663 1313L663 1287L663 1261L637 1235L637 1209L637 1183L637 1157L637 1131L637 1105L637 1079L637 1053L637 1027L637 1001L637 975" stroke="url(&quot;#SvgjsLinearGradient1554&quot;)" stroke-width="4.33"></path><path d="M630.5 975 a6.5 6.5 0 1 0 13 0 a6.5 6.5 0 1 0 -13 0zM734.5 1599 a6.5 6.5 0 1 0 13 0 a6.5 6.5 0 1 0 -13 0zM578.5 845 a6.5 6.5 0 1 0 13 0 a6.5 6.5 0 1 0 -13 0zM578.5 949 a6.5 6.5 0 1 0 13 0 a6.5 6.5 0 1 0 -13 0zM604.5 1027 a6.5 6.5 0 1 0 13 0 a6.5 6.5 0 1 0 -13 0zM604.5 1053 a6.5 6.5 0 1 0 13 0 a6.5 6.5 0 1 0 -13 0z" fill="url(&quot;#SvgjsLinearGradient1554&quot;)"></path><path d="M1911 845L1885 819L1885 793L1885 767L1885 741L1885 715L1885 689L1885 663L1885 637L1885 611L1885 585M1937 533L1911 507L1885 481M1937 689L1963 663M1885 1079L1911 1053M1911 793L1937 767L1937 741M1885 1027L1911 1001L1911 975L1911 949L1911 923L1937 897L1937 871L1937 845M1937 585L1963 559L1963 533L1963 507L1963 481L1963 455L1963 429L1963 403M1937 715L1963 689L1989 663L1989 637L1989 611L1963 585M1885 1235L1885 1209L1885 1183M1937 611L1911 585L1911 559L1885 533L1885 507L1859 481L1859 455L1859 429L1885 403M1833 1703L1807 1677M1911 455L1885 429M1807 1729L1833 1703L1833 1677L1833 1651L1833 1625L1833 1599L1833 1573L1859 1547L1885 1521L1885 1495L1885 1469L1885 1443L1885 1417L1885 1391L1885 1365L1885 1339L1885 1313L1885 1287L1885 1261L1885 1235L1859 1209L1859 1183L1885 1157L1885 1131L1885 1105L1885 1079L1885 1053L1885 1027L1885 1001L1885 975L1885 949L1885 923L1911 897L1911 871L1911 845L1911 819L1911 793L1911 767L1911 741L1937 715L1937 689L1937 663L1937 637L1937 611L1937 585L1937 559L1937 533L1937 507L1911 481L1911 455L1911 429" stroke="url(&quot;#SvgjsLinearGradient1554&quot;)" stroke-width="4.33"></path><path d="M1904.5 429 a6.5 6.5 0 1 0 13 0 a6.5 6.5 0 1 0 -13 0zM1878.5 585 a6.5 6.5 0 1 0 13 0 a6.5 6.5 0 1 0 -13 0zM1878.5 481 a6.5 6.5 0 1 0 13 0 a6.5 6.5 0 1 0 -13 0zM1956.5 663 a6.5 6.5 0 1 0 13 0 a6.5 6.5 0 1 0 -13 0zM1904.5 1053 a6.5 6.5 0 1 0 13 0 a6.5 6.5 0 1 0 -13 0zM1930.5 741 a6.5 6.5 0 1 0 13 0 a6.5 6.5 0 1 0 -13 0zM1930.5 845 a6.5 6.5 0 1 0 13 0 a6.5 6.5 0 1 0 -13 0zM1956.5 403 a6.5 6.5 0 1 0 13 0 a6.5 6.5 0 1 0 -13 0zM1956.5 585 a6.5 6.5 0 1 0 13 0 a6.5 6.5 0 1 0 -13 0zM1878.5 1183 a6.5 6.5 0 1 0 13 0 a6.5 6.5 0 1 0 -13 0zM1878.5 403 a6.5 6.5 0 1 0 13 0 a6.5 6.5 0 1 0 -13 0zM1800.5 1677 a6.5 6.5 0 1 0 13 0 a6.5 6.5 0 1 0 -13 0zM1878.5 429 a6.5 6.5 0 1 0 13 0 a6.5 6.5 0 1 0 -13 0z" fill="url(&quot;#SvgjsLinearGradient1554&quot;)"></path><path d="M741 1729L741 1703L715 1677L715 1651L689 1625L689 1599L689 1573L663 1547L663 1521L663 1495L663 1469L637 1443L637 1417L637 1391L637 1365L637 1339L637 1313L637 1287L637 1261L611 1235L611 1209L611 1183L611 1157L611 1131L611 1105" stroke="url(&quot;#SvgjsLinearGradient1554&quot;)" stroke-width="4.33"></path><path d="M604.5 1105 a6.5 6.5 0 1 0 13 0 a6.5 6.5 0 1 0 -13 0z" fill="url(&quot;#SvgjsLinearGradient1554&quot;)"></path><path d="M715 1729L715 1703L689 1677L689 1651L663 1625L663 1599L663 1573L637 1547L637 1521L637 1495L637 1469L611 1443L611 1417L611 1391L611 1365L611 1339L611 1313L611 1287L611 1261L585 1235L585 1209L585 1183L585 1157L585 1131L585 1105L585 1079L585 1053L585 1027" stroke="url(&quot;#SvgjsLinearGradient1554&quot;)" stroke-width="4.33"></path><path d="M578.5 1027 a6.5 6.5 0 1 0 13 0 a6.5 6.5 0 1 0 -13 0z" fill="url(&quot;#SvgjsLinearGradient1554&quot;)"></path><path d="M1911 1391L1937 1365L1937 1339L1937 1313L1937 1287M1911 1183L1937 1157L1937 1131L1937 1105L1937 1079M1911 1209L1937 1183L1963 1157L1963 1131L1963 1105M1911 1261L1937 1235L1937 1209L1963 1183L1989 1157L1989 1131M1911 1417L1937 1391L1963 1365L1963 1339M1859 1729L1859 1703L1859 1677L1859 1651L1859 1625L1859 1599L1859 1573L1885 1547L1911 1521L1911 1495L1911 1469L1911 1443L1911 1417L1911 1391L1911 1365L1911 1339L1911 1313L1911 1287L1911 1261L1911 1235L1911 1209L1911 1183L1911 1157L1911 1131L1911 1105" stroke="url(&quot;#SvgjsLinearGradient1554&quot;)" stroke-width="4.33"></path><path d="M1904.5 1105 a6.5 6.5 0 1 0 13 0 a6.5 6.5 0 1 0 -13 0zM1930.5 1287 a6.5 6.5 0 1 0 13 0 a6.5 6.5 0 1 0 -13 0zM1930.5 1079 a6.5 6.5 0 1 0 13 0 a6.5 6.5 0 1 0 -13 0zM1956.5 1105 a6.5 6.5 0 1 0 13 0 a6.5 6.5 0 1 0 -13 0zM1982.5 1131 a6.5 6.5 0 1 0 13 0 a6.5 6.5 0 1 0 -13 0zM1956.5 1339 a6.5 6.5 0 1 0 13 0 a6.5 6.5 0 1 0 -13 0z" fill="url(&quot;#SvgjsLinearGradient1554&quot;)"></path><path d="M585 1365L559 1339L559 1313L559 1287L559 1261L533 1235L533 1209L533 1183L533 1157M559 871L533 845L533 819L533 793L533 767M559 975L533 949L533 923L533 897L533 871L507 845M559 1131L533 1105L533 1079L533 1053M559 1001L533 975L507 949L507 923L507 897M585 1391L559 1365M559 819L585 793L585 767L585 741L585 715L559 689L559 663L533 637L533 611L533 585L533 559L533 533M689 1729L689 1703L663 1677L663 1651L637 1625L637 1599L637 1573L611 1547L611 1521L611 1495L611 1469L585 1443L585 1417L585 1391L585 1365L585 1339L585 1313L585 1287L585 1261L559 1235L559 1209L559 1183L559 1157L559 1131L559 1105L559 1079L559 1053L559 1027L559 1001L559 975L559 949L559 923L559 897L559 871L559 845L559 819L559 793L559 767" stroke="url(&quot;#SvgjsLinearGradient1554&quot;)" stroke-width="4.33"></path><path d="M552.5 767 a6.5 6.5 0 1 0 13 0 a6.5 6.5 0 1 0 -13 0zM526.5 1157 a6.5 6.5 0 1 0 13 0 a6.5 6.5 0 1 0 -13 0zM526.5 767 a6.5 6.5 0 1 0 13 0 a6.5 6.5 0 1 0 -13 0zM500.5 845 a6.5 6.5 0 1 0 13 0 a6.5 6.5 0 1 0 -13 0zM526.5 1053 a6.5 6.5 0 1 0 13 0 a6.5 6.5 0 1 0 -13 0zM500.5 897 a6.5 6.5 0 1 0 13 0 a6.5 6.5 0 1 0 -13 0zM552.5 1365 a6.5 6.5 0 1 0 13 0 a6.5 6.5 0 1 0 -13 0zM526.5 533 a6.5 6.5 0 1 0 13 0 a6.5 6.5 0 1 0 -13 0z" fill="url(&quot;#SvgjsLinearGradient1554&quot;)"></path><path d="M1885 1599L1911 1573L1937 1547L1963 1521L1989 1495M1937 1495L1963 1469M1885 1703L1911 1677L1911 1651L1911 1625M1885 1729L1885 1703L1885 1677L1885 1651L1885 1625L1885 1599L1885 1573L1911 1547L1937 1521L1937 1495L1937 1469L1937 1443" stroke="url(&quot;#SvgjsLinearGradient1554&quot;)" stroke-width="4.33"></path><path d="M1930.5 1443 a6.5 6.5 0 1 0 13 0 a6.5 6.5 0 1 0 -13 0zM1982.5 1495 a6.5 6.5 0 1 0 13 0 a6.5 6.5 0 1 0 -13 0zM1956.5 1469 a6.5 6.5 0 1 0 13 0 a6.5 6.5 0 1 0 -13 0zM1904.5 1625 a6.5 6.5 0 1 0 13 0 a6.5 6.5 0 1 0 -13 0z" fill="url(&quot;#SvgjsLinearGradient1554&quot;)"></path><path d="M507 1235L481 1209L481 1183L455 1157L455 1131L455 1105L455 1079L455 1053L455 1027L455 1001M585 1547L559 1521L559 1495L559 1469L533 1443M611 1625L585 1599L585 1573L559 1547M559 1417L559 1391M533 1313L533 1287L533 1261M533 1391L507 1365L507 1339L507 1313L481 1287L481 1261L481 1235M663 1729L663 1703L637 1677L637 1651L611 1625L611 1599L611 1573L585 1547L585 1521L585 1495L585 1469L559 1443L559 1417L533 1391L533 1365L533 1339L533 1313L507 1287L507 1261L507 1235L507 1209L507 1183L481 1157L481 1131L481 1105L481 1079" stroke="url(&quot;#SvgjsLinearGradient1554&quot;)" stroke-width="4.33"></path><path d="M474.5 1079 a6.5 6.5 0 1 0 13 0 a6.5 6.5 0 1 0 -13 0zM448.5 1001 a6.5 6.5 0 1 0 13 0 a6.5 6.5 0 1 0 -13 0zM526.5 1443 a6.5 6.5 0 1 0 13 0 a6.5 6.5 0 1 0 -13 0zM552.5 1547 a6.5 6.5 0 1 0 13 0 a6.5 6.5 0 1 0 -13 0zM552.5 1391 a6.5 6.5 0 1 0 13 0 a6.5 6.5 0 1 0 -13 0zM526.5 1261 a6.5 6.5 0 1 0 13 0 a6.5 6.5 0 1 0 -13 0zM474.5 1235 a6.5 6.5 0 1 0 13 0 a6.5 6.5 0 1 0 -13 0z" fill="url(&quot;#SvgjsLinearGradient1554&quot;)"></path></g></g><defs><mask id="SvgjsMask1553"><rect width="2550" height="1700" fill="#ffffff"></rect></mask><linearGradient x1="0" y1="1020" x2="2550" y2="1020" gradientUnits="userSpaceOnUse" id="SvgjsLinearGradient1554"><stop stop-color="#3a7cc3" offset="0"></stop><stop stop-color="rgba(25, 135, 84, 1)" offset="1"></stop></linearGradient><mask id="SvgjsMask1555"><rect width="2550" height="1700" fill="white"></rect><path d="M1335.75 1417 a3.25 3.25 0 1 0 6.5 0 a3.25 3.25 0 1 0 -6.5 0zM1309.75 1573 a3.25 3.25 0 1 0 6.5 0 a3.25 3.25 0 1 0 -6.5 0zM1283.75 1573 a3.25 3.25 0 1 0 6.5 0 a3.25 3.25 0 1 0 -6.5 0zM1309.75 1391 a3.25 3.25 0 1 0 6.5 0 a3.25 3.25 0 1 0 -6.5 0z" fill="black"></path><path d="M1231.75 1027 a3.25 3.25 0 1 0 6.5 0 a3.25 3.25 0 1 0 -6.5 0zM1257.75 1183 a3.25 3.25 0 1 0 6.5 0 a3.25 3.25 0 1 0 -6.5 0zM1283.75 1599 a3.25 3.25 0 1 0 6.5 0 a3.25 3.25 0 1 0 -6.5 0zM1257.75 975 a3.25 3.25 0 1 0 6.5 0 a3.25 3.25 0 1 0 -6.5 0zM1283.75 1235 a3.25 3.25 0 1 0 6.5 0 a3.25 3.25 0 1 0 -6.5 0zM1283.75 897 a3.25 3.25 0 1 0 6.5 0 a3.25 3.25 0 1 0 -6.5 0zM1309.75 1183 a3.25 3.25 0 1 0 6.5 0 a3.25 3.25 0 1 0 -6.5 0zM1335.75 1235 a3.25 3.25 0 1 0 6.5 0 a3.25 3.25 0 1 0 -6.5 0z" fill="black"></path><path d="M1387.75 1261 a3.25 3.25 0 1 0 6.5 0 a3.25 3.25 0 1 0 -6.5 0zM1387.75 1339 a3.25 3.25 0 1 0 6.5 0 a3.25 3.25 0 1 0 -6.5 0zM1361.75 1235 a3.25 3.25 0 1 0 6.5 0 a3.25 3.25 0 1 0 -6.5 0zM1413.75 1339 a3.25 3.25 0 1 0 6.5 0 a3.25 3.25 0 1 0 -6.5 0zM1361.75 1443 a3.25 3.25 0 1 0 6.5 0 a3.25 3.25 0 1 0 -6.5 0z" fill="black"></path><path d="M1231.75 715 a3.25 3.25 0 1 0 6.5 0 a3.25 3.25 0 1 0 -6.5 0zM1205.75 1547 a3.25 3.25 0 1 0 6.5 0 a3.25 3.25 0 1 0 -6.5 0zM1257.75 715 a3.25 3.25 0 1 0 6.5 0 a3.25 3.25 0 1 0 -6.5 0zM1179.75 1313 a3.25 3.25 0 1 0 6.5 0 a3.25 3.25 0 1 0 -6.5 0zM1231.75 1287 a3.25 3.25 0 1 0 6.5 0 a3.25 3.25 0 1 0 -6.5 0zM1231.75 1131 a3.25 3.25 0 1 0 6.5 0 a3.25 3.25 0 1 0 -6.5 0zM1205.75 975 a3.25 3.25 0 1 0 6.5 0 a3.25 3.25 0 1 0 -6.5 0zM1179.75 897 a3.25 3.25 0 1 0 6.5 0 a3.25 3.25 0 1 0 -6.5 0zM1231.75 897 a3.25 3.25 0 1 0 6.5 0 a3.25 3.25 0 1 0 -6.5 0zM1205.75 767 a3.25 3.25 0 1 0 6.5 0 a3.25 3.25 0 1 0 -6.5 0zM1283.75 637 a3.25 3.25 0 1 0 6.5 0 a3.25 3.25 0 1 0 -6.5 0z" fill="black"></path><path d="M1413.75 1183 a3.25 3.25 0 1 0 6.5 0 a3.25 3.25 0 1 0 -6.5 0zM1413.75 1365 a3.25 3.25 0 1 0 6.5 0 a3.25 3.25 0 1 0 -6.5 0zM1439.75 1183 a3.25 3.25 0 1 0 6.5 0 a3.25 3.25 0 1 0 -6.5 0zM1439.75 1209 a3.25 3.25 0 1 0 6.5 0 a3.25 3.25 0 1 0 -6.5 0zM1439.75 1261 a3.25 3.25 0 1 0 6.5 0 a3.25 3.25 0 1 0 -6.5 0z" fill="black"></path><path d="M1179.75 1183 a3.25 3.25 0 1 0 6.5 0 a3.25 3.25 0 1 0 -6.5 0zM1153.75 1261 a3.25 3.25 0 1 0 6.5 0 a3.25 3.25 0 1 0 -6.5 0zM1153.75 1131 a3.25 3.25 0 1 0 6.5 0 a3.25 3.25 0 1 0 -6.5 0zM1179.75 1339 a3.25 3.25 0 1 0 6.5 0 a3.25 3.25 0 1 0 -6.5 0zM1179.75 1417 a3.25 3.25 0 1 0 6.5 0 a3.25 3.25 0 1 0 -6.5 0zM1179.75 1443 a3.25 3.25 0 1 0 6.5 0 a3.25 3.25 0 1 0 -6.5 0z" fill="black"></path><path d="M1439.75 715 a3.25 3.25 0 1 0 6.5 0 a3.25 3.25 0 1 0 -6.5 0zM1465.75 741 a3.25 3.25 0 1 0 6.5 0 a3.25 3.25 0 1 0 -6.5 0zM1465.75 1443 a3.25 3.25 0 1 0 6.5 0 a3.25 3.25 0 1 0 -6.5 0zM1413.75 689 a3.25 3.25 0 1 0 6.5 0 a3.25 3.25 0 1 0 -6.5 0zM1413.75 1027 a3.25 3.25 0 1 0 6.5 0 a3.25 3.25 0 1 0 -6.5 0zM1465.75 1001 a3.25 3.25 0 1 0 6.5 0 a3.25 3.25 0 1 0 -6.5 0zM1387.75 1053 a3.25 3.25 0 1 0 6.5 0 a3.25 3.25 0 1 0 -6.5 0zM1491.75 975 a3.25 3.25 0 1 0 6.5 0 a3.25 3.25 0 1 0 -6.5 0zM1517.75 1157 a3.25 3.25 0 1 0 6.5 0 a3.25 3.25 0 1 0 -6.5 0zM1413.75 975 a3.25 3.25 0 1 0 6.5 0 a3.25 3.25 0 1 0 -6.5 0zM1517.75 611 a3.25 3.25 0 1 0 6.5 0 a3.25 3.25 0 1 0 -6.5 0z" fill="black"></path><path d="M1049.75 949 a3.25 3.25 0 1 0 6.5 0 a3.25 3.25 0 1 0 -6.5 0zM1075.75 949 a3.25 3.25 0 1 0 6.5 0 a3.25 3.25 0 1 0 -6.5 0zM1127.75 1157 a3.25 3.25 0 1 0 6.5 0 a3.25 3.25 0 1 0 -6.5 0zM1127.75 1183 a3.25 3.25 0 1 0 6.5 0 a3.25 3.25 0 1 0 -6.5 0zM1153.75 1209 a3.25 3.25 0 1 0 6.5 0 a3.25 3.25 0 1 0 -6.5 0zM1127.75 1391 a3.25 3.25 0 1 0 6.5 0 a3.25 3.25 0 1 0 -6.5 0zM1075.75 975 a3.25 3.25 0 1 0 6.5 0 a3.25 3.25 0 1 0 -6.5 0zM1101.75 897 a3.25 3.25 0 1 0 6.5 0 a3.25 3.25 0 1 0 -6.5 0z" fill="black"></path><path d="M1439.75 1573 a3.25 3.25 0 1 0 6.5 0 a3.25 3.25 0 1 0 -6.5 0z" fill="black"></path><path d="M997.75 689 a3.25 3.25 0 1 0 6.5 0 a3.25 3.25 0 1 0 -6.5 0zM1049.75 637 a3.25 3.25 0 1 0 6.5 0 a3.25 3.25 0 1 0 -6.5 0zM1075.75 1391 a3.25 3.25 0 1 0 6.5 0 a3.25 3.25 0 1 0 -6.5 0zM1075.75 1313 a3.25 3.25 0 1 0 6.5 0 a3.25 3.25 0 1 0 -6.5 0zM1049.75 1157 a3.25 3.25 0 1 0 6.5 0 a3.25 3.25 0 1 0 -6.5 0zM1049.75 689 a3.25 3.25 0 1 0 6.5 0 a3.25 3.25 0 1 0 -6.5 0zM1101.75 663 a3.25 3.25 0 1 0 6.5 0 a3.25 3.25 0 1 0 -6.5 0zM1075.75 1469 a3.25 3.25 0 1 0 6.5 0 a3.25 3.25 0 1 0 -6.5 0zM1075.75 1339 a3.25 3.25 0 1 0 6.5 0 a3.25 3.25 0 1 0 -6.5 0zM1049.75 1209 a3.25 3.25 0 1 0 6.5 0 a3.25 3.25 0 1 0 -6.5 0zM1127.75 1443 a3.25 3.25 0 1 0 6.5 0 a3.25 3.25 0 1 0 -6.5 0z" fill="black"></path><path d="M1465.75 1573 a3.25 3.25 0 1 0 6.5 0 a3.25 3.25 0 1 0 -6.5 0z" fill="black"></path><path d="M1075.75 1521 a3.25 3.25 0 1 0 6.5 0 a3.25 3.25 0 1 0 -6.5 0zM1101.75 1521 a3.25 3.25 0 1 0 6.5 0 a3.25 3.25 0 1 0 -6.5 0z" fill="black"></path><path d="M1491.75 1261 a3.25 3.25 0 1 0 6.5 0 a3.25 3.25 0 1 0 -6.5 0zM1465.75 1521 a3.25 3.25 0 1 0 6.5 0 a3.25 3.25 0 1 0 -6.5 0zM1517.75 1339 a3.25 3.25 0 1 0 6.5 0 a3.25 3.25 0 1 0 -6.5 0zM1517.75 1235 a3.25 3.25 0 1 0 6.5 0 a3.25 3.25 0 1 0 -6.5 0zM1491.75 1651 a3.25 3.25 0 1 0 6.5 0 a3.25 3.25 0 1 0 -6.5 0z" fill="black"></path><path d="M971.75 403 a3.25 3.25 0 1 0 6.5 0 a3.25 3.25 0 1 0 -6.5 0zM945.75 429 a3.25 3.25 0 1 0 6.5 0 a3.25 3.25 0 1 0 -6.5 0zM997.75 455 a3.25 3.25 0 1 0 6.5 0 a3.25 3.25 0 1 0 -6.5 0zM997.75 403 a3.25 3.25 0 1 0 6.5 0 a3.25 3.25 0 1 0 -6.5 0zM919.75 455 a3.25 3.25 0 1 0 6.5 0 a3.25 3.25 0 1 0 -6.5 0zM997.75 1157 a3.25 3.25 0 1 0 6.5 0 a3.25 3.25 0 1 0 -6.5 0zM1023.75 1131 a3.25 3.25 0 1 0 6.5 0 a3.25 3.25 0 1 0 -6.5 0zM1023.75 403 a3.25 3.25 0 1 0 6.5 0 a3.25 3.25 0 1 0 -6.5 0zM971.75 793 a3.25 3.25 0 1 0 6.5 0 a3.25 3.25 0 1 0 -6.5 0zM997.75 1209 a3.25 3.25 0 1 0 6.5 0 a3.25 3.25 0 1 0 -6.5 0zM1049.75 1235 a3.25 3.25 0 1 0 6.5 0 a3.25 3.25 0 1 0 -6.5 0zM1049.75 403 a3.25 3.25 0 1 0 6.5 0 a3.25 3.25 0 1 0 -6.5 0zM1049.75 1261 a3.25 3.25 0 1 0 6.5 0 a3.25 3.25 0 1 0 -6.5 0z" fill="black"></path><path d="M997.75 1313 a3.25 3.25 0 1 0 6.5 0 a3.25 3.25 0 1 0 -6.5 0zM1023.75 1313 a3.25 3.25 0 1 0 6.5 0 a3.25 3.25 0 1 0 -6.5 0z" fill="black"></path><path d="M1491.75 1703 a3.25 3.25 0 1 0 6.5 0 a3.25 3.25 0 1 0 -6.5 0z" fill="black"></path><path d="M971.75 897 a3.25 3.25 0 1 0 6.5 0 a3.25 3.25 0 1 0 -6.5 0zM945.75 1157 a3.25 3.25 0 1 0 6.5 0 a3.25 3.25 0 1 0 -6.5 0z" fill="black"></path><path d="M1569.75 689 a3.25 3.25 0 1 0 6.5 0 a3.25 3.25 0 1 0 -6.5 0zM1569.75 1235 a3.25 3.25 0 1 0 6.5 0 a3.25 3.25 0 1 0 -6.5 0zM1569.75 897 a3.25 3.25 0 1 0 6.5 0 a3.25 3.25 0 1 0 -6.5 0zM1569.75 1053 a3.25 3.25 0 1 0 6.5 0 a3.25 3.25 0 1 0 -6.5 0zM1543.75 1001 a3.25 3.25 0 1 0 6.5 0 a3.25 3.25 0 1 0 -6.5 0zM1543.75 663 a3.25 3.25 0 1 0 6.5 0 a3.25 3.25 0 1 0 -6.5 0zM1543.75 923 a3.25 3.25 0 1 0 6.5 0 a3.25 3.25 0 1 0 -6.5 0zM1517.75 1365 a3.25 3.25 0 1 0 6.5 0 a3.25 3.25 0 1 0 -6.5 0zM1517.75 1391 a3.25 3.25 0 1 0 6.5 0 a3.25 3.25 0 1 0 -6.5 0zM1543.75 715 a3.25 3.25 0 1 0 6.5 0 a3.25 3.25 0 1 0 -6.5 0zM1517.75 1651 a3.25 3.25 0 1 0 6.5 0 a3.25 3.25 0 1 0 -6.5 0z" fill="black"></path><path d="M945.75 1209 a3.25 3.25 0 1 0 6.5 0 a3.25 3.25 0 1 0 -6.5 0z" fill="black"></path><path d="M1569.75 1417 a3.25 3.25 0 1 0 6.5 0 a3.25 3.25 0 1 0 -6.5 0zM1569.75 1443 a3.25 3.25 0 1 0 6.5 0 a3.25 3.25 0 1 0 -6.5 0zM1569.75 1521 a3.25 3.25 0 1 0 6.5 0 a3.25 3.25 0 1 0 -6.5 0z" fill="black"></path><path d="M971.75 741 a3.25 3.25 0 1 0 6.5 0 a3.25 3.25 0 1 0 -6.5 0zM919.75 819 a3.25 3.25 0 1 0 6.5 0 a3.25 3.25 0 1 0 -6.5 0zM919.75 1469 a3.25 3.25 0 1 0 6.5 0 a3.25 3.25 0 1 0 -6.5 0zM919.75 1365 a3.25 3.25 0 1 0 6.5 0 a3.25 3.25 0 1 0 -6.5 0zM893.75 1157 a3.25 3.25 0 1 0 6.5 0 a3.25 3.25 0 1 0 -6.5 0zM919.75 1417 a3.25 3.25 0 1 0 6.5 0 a3.25 3.25 0 1 0 -6.5 0zM919.75 1521 a3.25 3.25 0 1 0 6.5 0 a3.25 3.25 0 1 0 -6.5 0zM945.75 741 a3.25 3.25 0 1 0 6.5 0 a3.25 3.25 0 1 0 -6.5 0zM867.75 871 a3.25 3.25 0 1 0 6.5 0 a3.25 3.25 0 1 0 -6.5 0z" fill="black"></path><path d="M1621.75 663 a3.25 3.25 0 1 0 6.5 0 a3.25 3.25 0 1 0 -6.5 0zM1647.75 845 a3.25 3.25 0 1 0 6.5 0 a3.25 3.25 0 1 0 -6.5 0zM1647.75 715 a3.25 3.25 0 1 0 6.5 0 a3.25 3.25 0 1 0 -6.5 0zM1647.75 1001 a3.25 3.25 0 1 0 6.5 0 a3.25 3.25 0 1 0 -6.5 0zM1569.75 1261 a3.25 3.25 0 1 0 6.5 0 a3.25 3.25 0 1 0 -6.5 0zM1569.75 1313 a3.25 3.25 0 1 0 6.5 0 a3.25 3.25 0 1 0 -6.5 0zM1647.75 1027 a3.25 3.25 0 1 0 6.5 0 a3.25 3.25 0 1 0 -6.5 0zM1647.75 481 a3.25 3.25 0 1 0 6.5 0 a3.25 3.25 0 1 0 -6.5 0zM1569.75 1339 a3.25 3.25 0 1 0 6.5 0 a3.25 3.25 0 1 0 -6.5 0zM1595.75 403 a3.25 3.25 0 1 0 6.5 0 a3.25 3.25 0 1 0 -6.5 0z" fill="black"></path><path d="M945.75 1599 a3.25 3.25 0 1 0 6.5 0 a3.25 3.25 0 1 0 -6.5 0z" fill="black"></path><path d="M1647.75 897 a3.25 3.25 0 1 0 6.5 0 a3.25 3.25 0 1 0 -6.5 0zM1647.75 1053 a3.25 3.25 0 1 0 6.5 0 a3.25 3.25 0 1 0 -6.5 0zM1699.75 1001 a3.25 3.25 0 1 0 6.5 0 a3.25 3.25 0 1 0 -6.5 0zM1673.75 793 a3.25 3.25 0 1 0 6.5 0 a3.25 3.25 0 1 0 -6.5 0zM1699.75 897 a3.25 3.25 0 1 0 6.5 0 a3.25 3.25 0 1 0 -6.5 0z" fill="black"></path><path d="M841.75 949 a3.25 3.25 0 1 0 6.5 0 a3.25 3.25 0 1 0 -6.5 0zM867.75 1209 a3.25 3.25 0 1 0 6.5 0 a3.25 3.25 0 1 0 -6.5 0zM919.75 1625 a3.25 3.25 0 1 0 6.5 0 a3.25 3.25 0 1 0 -6.5 0zM867.75 1443 a3.25 3.25 0 1 0 6.5 0 a3.25 3.25 0 1 0 -6.5 0zM867.75 1079 a3.25 3.25 0 1 0 6.5 0 a3.25 3.25 0 1 0 -6.5 0zM867.75 1261 a3.25 3.25 0 1 0 6.5 0 a3.25 3.25 0 1 0 -6.5 0zM841.75 741 a3.25 3.25 0 1 0 6.5 0 a3.25 3.25 0 1 0 -6.5 0zM867.75 1495 a3.25 3.25 0 1 0 6.5 0 a3.25 3.25 0 1 0 -6.5 0z" fill="black"></path><path d="M1673.75 1079 a3.25 3.25 0 1 0 6.5 0 a3.25 3.25 0 1 0 -6.5 0zM1673.75 1157 a3.25 3.25 0 1 0 6.5 0 a3.25 3.25 0 1 0 -6.5 0zM1673.75 1521 a3.25 3.25 0 1 0 6.5 0 a3.25 3.25 0 1 0 -6.5 0zM1673.75 1339 a3.25 3.25 0 1 0 6.5 0 a3.25 3.25 0 1 0 -6.5 0zM1673.75 1547 a3.25 3.25 0 1 0 6.5 0 a3.25 3.25 0 1 0 -6.5 0zM1699.75 1313 a3.25 3.25 0 1 0 6.5 0 a3.25 3.25 0 1 0 -6.5 0zM1699.75 1157 a3.25 3.25 0 1 0 6.5 0 a3.25 3.25 0 1 0 -6.5 0z" fill="black"></path><path d="M815.75 949 a3.25 3.25 0 1 0 6.5 0 a3.25 3.25 0 1 0 -6.5 0zM867.75 1313 a3.25 3.25 0 1 0 6.5 0 a3.25 3.25 0 1 0 -6.5 0zM789.75 975 a3.25 3.25 0 1 0 6.5 0 a3.25 3.25 0 1 0 -6.5 0zM867.75 1521 a3.25 3.25 0 1 0 6.5 0 a3.25 3.25 0 1 0 -6.5 0zM867.75 1547 a3.25 3.25 0 1 0 6.5 0 a3.25 3.25 0 1 0 -6.5 0zM789.75 1131 a3.25 3.25 0 1 0 6.5 0 a3.25 3.25 0 1 0 -6.5 0zM815.75 1001 a3.25 3.25 0 1 0 6.5 0 a3.25 3.25 0 1 0 -6.5 0zM841.75 1391 a3.25 3.25 0 1 0 6.5 0 a3.25 3.25 0 1 0 -6.5 0z" fill="black"></path><path d="M1673.75 1599 a3.25 3.25 0 1 0 6.5 0 a3.25 3.25 0 1 0 -6.5 0z" fill="black"></path><path d="M763.75 871 a3.25 3.25 0 1 0 6.5 0 a3.25 3.25 0 1 0 -6.5 0zM789.75 845 a3.25 3.25 0 1 0 6.5 0 a3.25 3.25 0 1 0 -6.5 0zM737.75 845 a3.25 3.25 0 1 0 6.5 0 a3.25 3.25 0 1 0 -6.5 0zM789.75 897 a3.25 3.25 0 1 0 6.5 0 a3.25 3.25 0 1 0 -6.5 0zM789.75 1157 a3.25 3.25 0 1 0 6.5 0 a3.25 3.25 0 1 0 -6.5 0zM737.75 949 a3.25 3.25 0 1 0 6.5 0 a3.25 3.25 0 1 0 -6.5 0zM737.75 1027 a3.25 3.25 0 1 0 6.5 0 a3.25 3.25 0 1 0 -6.5 0z" fill="black"></path><path d="M1751.75 897 a3.25 3.25 0 1 0 6.5 0 a3.25 3.25 0 1 0 -6.5 0zM1725.75 1599 a3.25 3.25 0 1 0 6.5 0 a3.25 3.25 0 1 0 -6.5 0zM1699.75 1391 a3.25 3.25 0 1 0 6.5 0 a3.25 3.25 0 1 0 -6.5 0zM1751.75 1443 a3.25 3.25 0 1 0 6.5 0 a3.25 3.25 0 1 0 -6.5 0zM1699.75 1443 a3.25 3.25 0 1 0 6.5 0 a3.25 3.25 0 1 0 -6.5 0zM1725.75 845 a3.25 3.25 0 1 0 6.5 0 a3.25 3.25 0 1 0 -6.5 0zM1699.75 1027 a3.25 3.25 0 1 0 6.5 0 a3.25 3.25 0 1 0 -6.5 0zM1777.75 897 a3.25 3.25 0 1 0 6.5 0 a3.25 3.25 0 1 0 -6.5 0zM1751.75 975 a3.25 3.25 0 1 0 6.5 0 a3.25 3.25 0 1 0 -6.5 0z" fill="black"></path><path d="M685.75 403 a3.25 3.25 0 1 0 6.5 0 a3.25 3.25 0 1 0 -6.5 0zM763.75 1287 a3.25 3.25 0 1 0 6.5 0 a3.25 3.25 0 1 0 -6.5 0zM685.75 767 a3.25 3.25 0 1 0 6.5 0 a3.25 3.25 0 1 0 -6.5 0zM711.75 481 a3.25 3.25 0 1 0 6.5 0 a3.25 3.25 0 1 0 -6.5 0zM659.75 611 a3.25 3.25 0 1 0 6.5 0 a3.25 3.25 0 1 0 -6.5 0zM711.75 533 a3.25 3.25 0 1 0 6.5 0 a3.25 3.25 0 1 0 -6.5 0zM659.75 455 a3.25 3.25 0 1 0 6.5 0 a3.25 3.25 0 1 0 -6.5 0zM763.75 403 a3.25 3.25 0 1 0 6.5 0 a3.25 3.25 0 1 0 -6.5 0zM711.75 611 a3.25 3.25 0 1 0 6.5 0 a3.25 3.25 0 1 0 -6.5 0zM659.75 715 a3.25 3.25 0 1 0 6.5 0 a3.25 3.25 0 1 0 -6.5 0zM763.75 1339 a3.25 3.25 0 1 0 6.5 0 a3.25 3.25 0 1 0 -6.5 0zM711.75 689 a3.25 3.25 0 1 0 6.5 0 a3.25 3.25 0 1 0 -6.5 0zM711.75 403 a3.25 3.25 0 1 0 6.5 0 a3.25 3.25 0 1 0 -6.5 0zM711.75 637 a3.25 3.25 0 1 0 6.5 0 a3.25 3.25 0 1 0 -6.5 0z" fill="black"></path><path d="M1751.75 1573 a3.25 3.25 0 1 0 6.5 0 a3.25 3.25 0 1 0 -6.5 0zM1725.75 1625 a3.25 3.25 0 1 0 6.5 0 a3.25 3.25 0 1 0 -6.5 0z" fill="black"></path><path d="M685.75 871 a3.25 3.25 0 1 0 6.5 0 a3.25 3.25 0 1 0 -6.5 0zM685.75 1131 a3.25 3.25 0 1 0 6.5 0 a3.25 3.25 0 1 0 -6.5 0zM659.75 741 a3.25 3.25 0 1 0 6.5 0 a3.25 3.25 0 1 0 -6.5 0zM763.75 1443 a3.25 3.25 0 1 0 6.5 0 a3.25 3.25 0 1 0 -6.5 0zM685.75 1183 a3.25 3.25 0 1 0 6.5 0 a3.25 3.25 0 1 0 -6.5 0zM659.75 923 a3.25 3.25 0 1 0 6.5 0 a3.25 3.25 0 1 0 -6.5 0zM685.75 1079 a3.25 3.25 0 1 0 6.5 0 a3.25 3.25 0 1 0 -6.5 0z" fill="black"></path><path d="M711.75 1261 a3.25 3.25 0 1 0 6.5 0 a3.25 3.25 0 1 0 -6.5 0z" fill="black"></path><path d="M1777.75 975 a3.25 3.25 0 1 0 6.5 0 a3.25 3.25 0 1 0 -6.5 0zM1751.75 1469 a3.25 3.25 0 1 0 6.5 0 a3.25 3.25 0 1 0 -6.5 0zM1829.75 1417 a3.25 3.25 0 1 0 6.5 0 a3.25 3.25 0 1 0 -6.5 0zM1777.75 1157 a3.25 3.25 0 1 0 6.5 0 a3.25 3.25 0 1 0 -6.5 0zM1803.75 1053 a3.25 3.25 0 1 0 6.5 0 a3.25 3.25 0 1 0 -6.5 0zM1803.75 1001 a3.25 3.25 0 1 0 6.5 0 a3.25 3.25 0 1 0 -6.5 0zM1751.75 1053 a3.25 3.25 0 1 0 6.5 0 a3.25 3.25 0 1 0 -6.5 0zM1803.75 1287 a3.25 3.25 0 1 0 6.5 0 a3.25 3.25 0 1 0 -6.5 0z" fill="black"></path><path d="M633.75 689 a3.25 3.25 0 1 0 6.5 0 a3.25 3.25 0 1 0 -6.5 0zM555.75 507 a3.25 3.25 0 1 0 6.5 0 a3.25 3.25 0 1 0 -6.5 0zM607.75 871 a3.25 3.25 0 1 0 6.5 0 a3.25 3.25 0 1 0 -6.5 0zM555.75 585 a3.25 3.25 0 1 0 6.5 0 a3.25 3.25 0 1 0 -6.5 0zM685.75 1209 a3.25 3.25 0 1 0 6.5 0 a3.25 3.25 0 1 0 -6.5 0zM685.75 1235 a3.25 3.25 0 1 0 6.5 0 a3.25 3.25 0 1 0 -6.5 0zM659.75 949 a3.25 3.25 0 1 0 6.5 0 a3.25 3.25 0 1 0 -6.5 0z" fill="black"></path><path d="M1881.75 871 a3.25 3.25 0 1 0 6.5 0 a3.25 3.25 0 1 0 -6.5 0zM1829.75 1053 a3.25 3.25 0 1 0 6.5 0 a3.25 3.25 0 1 0 -6.5 0zM1829.75 1079 a3.25 3.25 0 1 0 6.5 0 a3.25 3.25 0 1 0 -6.5 0zM1803.75 1183 a3.25 3.25 0 1 0 6.5 0 a3.25 3.25 0 1 0 -6.5 0zM1803.75 1651 a3.25 3.25 0 1 0 6.5 0 a3.25 3.25 0 1 0 -6.5 0zM1803.75 1079 a3.25 3.25 0 1 0 6.5 0 a3.25 3.25 0 1 0 -6.5 0zM1803.75 663 a3.25 3.25 0 1 0 6.5 0 a3.25 3.25 0 1 0 -6.5 0zM1829.75 949 a3.25 3.25 0 1 0 6.5 0 a3.25 3.25 0 1 0 -6.5 0zM1855.75 1235 a3.25 3.25 0 1 0 6.5 0 a3.25 3.25 0 1 0 -6.5 0z" fill="black"></path><path d="M633.75 975 a3.25 3.25 0 1 0 6.5 0 a3.25 3.25 0 1 0 -6.5 0zM737.75 1599 a3.25 3.25 0 1 0 6.5 0 a3.25 3.25 0 1 0 -6.5 0zM581.75 845 a3.25 3.25 0 1 0 6.5 0 a3.25 3.25 0 1 0 -6.5 0zM581.75 949 a3.25 3.25 0 1 0 6.5 0 a3.25 3.25 0 1 0 -6.5 0zM607.75 1027 a3.25 3.25 0 1 0 6.5 0 a3.25 3.25 0 1 0 -6.5 0zM607.75 1053 a3.25 3.25 0 1 0 6.5 0 a3.25 3.25 0 1 0 -6.5 0z" fill="black"></path><path d="M1907.75 429 a3.25 3.25 0 1 0 6.5 0 a3.25 3.25 0 1 0 -6.5 0zM1881.75 585 a3.25 3.25 0 1 0 6.5 0 a3.25 3.25 0 1 0 -6.5 0zM1881.75 481 a3.25 3.25 0 1 0 6.5 0 a3.25 3.25 0 1 0 -6.5 0zM1959.75 663 a3.25 3.25 0 1 0 6.5 0 a3.25 3.25 0 1 0 -6.5 0zM1907.75 1053 a3.25 3.25 0 1 0 6.5 0 a3.25 3.25 0 1 0 -6.5 0zM1933.75 741 a3.25 3.25 0 1 0 6.5 0 a3.25 3.25 0 1 0 -6.5 0zM1933.75 845 a3.25 3.25 0 1 0 6.5 0 a3.25 3.25 0 1 0 -6.5 0zM1959.75 403 a3.25 3.25 0 1 0 6.5 0 a3.25 3.25 0 1 0 -6.5 0zM1959.75 585 a3.25 3.25 0 1 0 6.5 0 a3.25 3.25 0 1 0 -6.5 0zM1881.75 1183 a3.25 3.25 0 1 0 6.5 0 a3.25 3.25 0 1 0 -6.5 0zM1881.75 403 a3.25 3.25 0 1 0 6.5 0 a3.25 3.25 0 1 0 -6.5 0zM1803.75 1677 a3.25 3.25 0 1 0 6.5 0 a3.25 3.25 0 1 0 -6.5 0zM1881.75 429 a3.25 3.25 0 1 0 6.5 0 a3.25 3.25 0 1 0 -6.5 0z" fill="black"></path><path d="M607.75 1105 a3.25 3.25 0 1 0 6.5 0 a3.25 3.25 0 1 0 -6.5 0z" fill="black"></path><path d="M581.75 1027 a3.25 3.25 0 1 0 6.5 0 a3.25 3.25 0 1 0 -6.5 0z" fill="black"></path><path d="M1907.75 1105 a3.25 3.25 0 1 0 6.5 0 a3.25 3.25 0 1 0 -6.5 0zM1933.75 1287 a3.25 3.25 0 1 0 6.5 0 a3.25 3.25 0 1 0 -6.5 0zM1933.75 1079 a3.25 3.25 0 1 0 6.5 0 a3.25 3.25 0 1 0 -6.5 0zM1959.75 1105 a3.25 3.25 0 1 0 6.5 0 a3.25 3.25 0 1 0 -6.5 0zM1985.75 1131 a3.25 3.25 0 1 0 6.5 0 a3.25 3.25 0 1 0 -6.5 0zM1959.75 1339 a3.25 3.25 0 1 0 6.5 0 a3.25 3.25 0 1 0 -6.5 0z" fill="black"></path><path d="M555.75 767 a3.25 3.25 0 1 0 6.5 0 a3.25 3.25 0 1 0 -6.5 0zM529.75 1157 a3.25 3.25 0 1 0 6.5 0 a3.25 3.25 0 1 0 -6.5 0zM529.75 767 a3.25 3.25 0 1 0 6.5 0 a3.25 3.25 0 1 0 -6.5 0zM503.75 845 a3.25 3.25 0 1 0 6.5 0 a3.25 3.25 0 1 0 -6.5 0zM529.75 1053 a3.25 3.25 0 1 0 6.5 0 a3.25 3.25 0 1 0 -6.5 0zM503.75 897 a3.25 3.25 0 1 0 6.5 0 a3.25 3.25 0 1 0 -6.5 0zM555.75 1365 a3.25 3.25 0 1 0 6.5 0 a3.25 3.25 0 1 0 -6.5 0zM529.75 533 a3.25 3.25 0 1 0 6.5 0 a3.25 3.25 0 1 0 -6.5 0z" fill="black"></path><path d="M1933.75 1443 a3.25 3.25 0 1 0 6.5 0 a3.25 3.25 0 1 0 -6.5 0zM1985.75 1495 a3.25 3.25 0 1 0 6.5 0 a3.25 3.25 0 1 0 -6.5 0zM1959.75 1469 a3.25 3.25 0 1 0 6.5 0 a3.25 3.25 0 1 0 -6.5 0zM1907.75 1625 a3.25 3.25 0 1 0 6.5 0 a3.25 3.25 0 1 0 -6.5 0z" fill="black"></path><path d="M477.75 1079 a3.25 3.25 0 1 0 6.5 0 a3.25 3.25 0 1 0 -6.5 0zM451.75 1001 a3.25 3.25 0 1 0 6.5 0 a3.25 3.25 0 1 0 -6.5 0zM529.75 1443 a3.25 3.25 0 1 0 6.5 0 a3.25 3.25 0 1 0 -6.5 0zM555.75 1547 a3.25 3.25 0 1 0 6.5 0 a3.25 3.25 0 1 0 -6.5 0zM555.75 1391 a3.25 3.25 0 1 0 6.5 0 a3.25 3.25 0 1 0 -6.5 0zM529.75 1261 a3.25 3.25 0 1 0 6.5 0 a3.25 3.25 0 1 0 -6.5 0zM477.75 1235 a3.25 3.25 0 1 0 6.5 0 a3.25 3.25 0 1 0 -6.5 0z" fill="black"></path></mask></defs></svg>